/* XPM */
static char *_70fbe6705274aa7df31bbbb8ffbf5f8[] = {
/* columns rows colors chars-per-pixel */
"16 16 59 1 ",
"  c #5ED8FF",
". c #61D9FF",
"X c #64DAFF",
"o c #68DCFF",
"O c #6ADDFF",
"+ c #6ADEFF",
"@ c #6CDEFF",
"# c #6DDEFF",
"$ c #6FDFFF",
"% c #70E0FF",
"& c #72E1FF",
"* c #76E3FF",
"= c #77E4FF",
"- c #78E4FF",
"; c #79E4FF",
": c #7DE6FF",
"> c #80E8FF",
", c #81E9FF",
"< c #83EAFF",
"1 c #85ECFF",
"2 c #86ECFF",
"3 c #89EEFF",
"4 c #8BEEFF",
"5 c #8CEFFF",
"6 c #8EF0FF",
"7 c #8FF1FF",
"8 c #90F2FF",
"9 c #91F3FF",
"0 c #92F3FF",
"q c #93F3FF",
"w c #94F4FF",
"e c #95F4FF",
"r c #95F7FF",
"t c #97F6FF",
"y c #96F7FF",
"u c #9AF7FF",
"i c #9AF9FF",
"p c #9BF9FF",
"a c #9EFAFF",
"s c #9FFBFF",
"d c #9FFCFF",
"f c #A0FCFF",
"g c #A3FEFF",
"h c #A2FFFF",
"j c #A3FFFF",
"k c #A4FFFF",
"l c #A5FFFF",
"z c #A6FFFF",
"x c #A7FFFF",
"c c #A8FFFF",
"v c #A9FFFF",
"b c #ABFFFF",
"n c #ACFFFF",
"m c #ADFFFF",
"M c #AEFFFF",
"N c #AFFFFF",
"B c #B3FFFF",
"V c #B4FFFF",
"C c None",
/* pixels */
"CCCCCCCCCCCCCCCC",
"CCCCCMxxxvMCCCCC",
"CCCMvMxviyxvMCCC",
"CCMBjjx0=>3dVMCC",
"CCMjjx6 *@OaxvCC",
"CMMjjj%-066jjMMC",
"CvxjxaX103jjjxvC",
"Cxjxjx=O>yxjjxxC",
"Cxjxjx0-X0xjxjxC",
"Cxxjxf50$1xjjxvC",
"CMMxju06oyxjjMMC",
"CCvx:@>%@xjxjMCC",
"CCMVy*@%ixjjBMCC",
"CCCMMxyixxMMMCCC",
"CCCCCMvxxxMCCCCC",
"CCCCCCCCCCCCCCCC"
};
