/* XPM */
static char *_57fa32e67ce4311be7fb6f6c6c91eda[] = {
/* columns rows colors chars-per-pixel */
"32 32 109 2 ",
"   c #57D5FF",
".  c #5AD5FF",
"X  c #5BD6FF",
"o  c #5CD7FF",
"O  c #5DD7FF",
"+  c #5ED7FF",
"@  c #5ED8FF",
"#  c #5FD8FF",
"$  c #60D8FF",
"%  c #61D8FF",
"&  c #61D9FF",
"*  c #62D9FF",
"=  c #63D9FF",
"-  c #63DAFF",
";  c #65DAFF",
":  c #64DBFF",
">  c #65DBFF",
",  c #66DBFF",
"<  c #67DBFF",
"1  c #67DCFF",
"2  c #68DCFF",
"3  c #69DCFF",
"4  c #68DDFF",
"5  c #69DDFF",
"6  c #6BDEFF",
"7  c #6CDEFF",
"8  c #6DDFFF",
"9  c #6EDFFF",
"0  c #70E0FF",
"q  c #70E1FF",
"w  c #72E1FF",
"e  c #73E2FF",
"r  c #74E3FF",
"t  c #75E3FF",
"y  c #76E3FF",
"u  c #79E5FF",
"i  c #7AE5FF",
"p  c #7BE6FF",
"a  c #7CE7FF",
"s  c #7DE7FF",
"d  c #7EE7FF",
"f  c #7EE8FF",
"g  c #7FE8FF",
"h  c #7FE9FF",
"j  c #80E8FF",
"k  c #80E9FF",
"l  c #81EAFF",
"z  c #82EAFF",
"x  c #83EAFF",
"c  c #85ECFF",
"v  c #86ECFF",
"b  c #87ECFF",
"n  c #87EDFF",
"m  c #88EDFF",
"M  c #88EEFF",
"N  c #89EEFF",
"B  c #8AEEFF",
"V  c #8BEFFF",
"C  c #8CEFFF",
"Z  c #8DEFFF",
"A  c #8BF0FF",
"S  c #8CF0FF",
"D  c #8DF0FF",
"F  c #8EF0FF",
"G  c #8FF0FF",
"H  c #8EF1FF",
"J  c #8FF1FF",
"K  c #90F1FF",
"L  c #91F2FF",
"P  c #91F3FF",
"I  c #92F3FF",
"U  c #93F3FF",
"Y  c #93F4FF",
"T  c #95F5FF",
"R  c #96F6FF",
"E  c #97F6FF",
"W  c #98F7FF",
"Q  c #9AF7FF",
"!  c #9AF8FF",
"~  c #9AF9FF",
"^  c #9BFAFF",
"/  c #9CF9FF",
"(  c #9CFAFF",
")  c #9DFAFF",
"_  c #9CFBFF",
"`  c #9FFBFF",
"'  c #9FFCFF",
"]  c #A1FCFF",
"[  c #A1FDFF",
"{  c #A2FDFF",
"}  c #A2FEFF",
"|  c #A3FEFF",
" . c #A2FFFF",
".. c #A3FFFF",
"X. c #A4FEFF",
"o. c #A4FFFF",
"O. c #A5FFFF",
"+. c #A6FFFF",
"@. c #A7FFFF",
"#. c #A8FFFF",
"$. c #A9FFFF",
"%. c #AAFFFF",
"&. c #ABFFFF",
"*. c #ACFFFF",
"=. c #ADFFFF",
"-. c #AEFFFF",
";. c #AFFFFF",
":. c #B1FFFF",
">. c None",
/* pixels */
">.>.>.>.>.>.>.>.>.>.>.>.>.>.>.>.>.>.>.>.>.>.>.>.>.>.>.>.>.>.>.>.",
">.>.>.>.>.>.>.>.>.>.>.>.>.>.>.>.>.>.>.>.>.>.>.>.>.>.>.>.>.>.>.>.",
">.>.>.>.>.>.>.>.>.>.>.-.&.o.&.-.-.&.o.&.&.>.>.>.>.>.>.>.>.>.>.>.",
">.>.>.>.>.>.>.>.>.&.&.-.&.o.........o.-.-.&.&.>.>.>.>.>.>.>.>.>.",
">.>.>.>.>.>.>.&.-.-...o.o.o.o.o.o.C W ~ o.o.-.&.>.>.>.>.>.>.>.>.",
">.>.>.>.>.>.&.:.o.o...o.o.o.o.o.] n C V G ~ ` o.:.&.>.>.>.>.>.>.",
">.>.>.>.>.&.:...o.o.o.o.o.o.o.o.C V C U C n R o...:.&.>.>.>.>.>.",
">.>.>.>.>.:...o.o.o.o.o.o.o.V 9 < 2 w h G V o.......:.&.>.>.>.>.",
">.>.>.>.&.....o.o.o.o...o.V X $ > > @ $ < t ` o...o...&.>.>.>.>.",
">.>.>.&.-.o...o.o.o.o.o.~ < < < G z z 7 <   U o...o...-.&.>.>.>.",
">.>.>.&.o.o.o.o.o.o.o.o.n @ 7 h Y C G G h V ..o.o.o.o...&.>.>.>.",
">.>.&.-.o.o.o.o.o.o.o.o.w $ w V V U V A U &...o.o.o.o.o.-.-.>.>.",
">.>.-.&.....o.o.o.o.o.` 2 2 t U V C G n ` o.o.o.o.o.o.o.&.&.>.>.",
">.>.o.o.o...o.o.o.o.o.` < % a U V V U n o...o.o.o.o.o.o...o.>.>.",
">.>.&.o.o.o.o.o.o.o.o.o.w O t z U V V Y &...o.o.o.o...o...&.>.>.",
">.>.&...o.o.o.o.o.o.o.o.R < O 2 2 V x ..o.o.o.o.o.o.......-.>.>.",
">.>.-.o.o.o.o.o.o.o.....' h t $ < $ V o.o.o.o.o.o.o.o.o.o.-.>.>.",
">.>.&.o.o.o.o.o.o.o...&.U G G V 2 $ w o.o.o.o.o.o.o.o.o.o.&.>.>.",
">.>.o.o.o.o.o.o.o.o...o.n G V U z < 2 ..o.o.o.o.o.o.o.o.o.o.>.>.",
">.>.&.&.o.o.o.o.o...o.~ n G G n V O 7 ' o.o.o.o.o.o.o.o.&.&.>.>.",
">.>.-.-...o.o.o.o...o.C G V G A u X a o.o.o.o.o.o.o.....:.&.>.>.",
">.>.>.&.....o.o.....&.b U V V G 2 O G &.o.o.o.o.o.o.o...&.>.>.>.",
">.>.>.&.-.....&.G 7 a x G Y V z % 7 ..o.o.o.o.o.o.o...-.&.>.>.>.",
">.>.>.>.&...o.o.a X $ < 7 a 2 2 O n o.o.o.o.o.o.o.o...&.>.>.>.>.",
">.>.>.>.-.:...o...U 7 2 @ @ $ $ u ..o.o.o.o.o...o...:.-.>.>.>.>.",
">.>.>.>.>.&.:...&.R V V z u t C o.o.o.o.o.o.o.....:.&.>.>.>.>.>.",
">.>.>.>.>.>.&.:.o.~ ~ G G U n o.o.o.o.o.o.o.....:.&.>.>.>.>.>.>.",
">.>.>.>.>.>.>.>.&.-.o.o.~ R G o.o.o.o.o.o...-.&.>.>.>.>.>.>.>.>.",
">.>.>.>.>.>.>.>.>.&.&.-.-.o.o...o.o.o.&.-.&.&.>.>.>.>.>.>.>.>.>.",
">.>.>.>.>.>.>.>.>.>.>.&.&.o.&.-.-.&.o.&.&.>.>.>.>.>.>.>.>.>.>.>.",
">.>.>.>.>.>.>.>.>.>.>.>.>.>.>.>.>.>.>.>.>.>.>.>.>.>.>.>.>.>.>.>.",
">.>.>.>.>.>.>.>.>.>.>.>.>.>.>.>.>.>.>.>.>.>.>.>.>.>.>.>.>.>.>.>."
};
