/* XPM */
static char *_8dfee0e86674f32ad2c905e0022410a[] = {
/* columns rows colors chars-per-pixel */
"64 64 153 2 ",
"   c #5ED7FF",
".  c #5FD7FF",
"X  c #5ED8FF",
"o  c #5FD8FF",
"O  c #60D8FF",
"+  c #61D8FF",
"@  c #60D9FF",
"#  c #61D9FF",
"$  c #62D8FF",
"%  c #62D9FF",
"&  c #63D9FF",
"*  c #60DAFF",
"=  c #61DAFF",
"-  c #62DAFF",
";  c #63DAFF",
":  c #62DBFF",
">  c #63DBFF",
",  c #64D9FF",
"<  c #64DAFF",
"1  c #65DAFF",
"2  c #64DBFF",
"3  c #65DBFF",
"4  c #66DBFF",
"5  c #67DBFF",
"6  c #64DCFF",
"7  c #65DCFF",
"8  c #66DCFF",
"9  c #67DCFF",
"0  c #66DDFF",
"q  c #67DDFF",
"w  c #68DCFF",
"e  c #69DCFF",
"r  c #68DDFF",
"t  c #69DDFF",
"y  c #6ADDFF",
"u  c #69DEFF",
"i  c #6ADEFF",
"p  c #6BDEFF",
"a  c #6BDFFF",
"s  c #6CDFFF",
"d  c #6DDFFF",
"f  c #6EDFFF",
"g  c #6EE0FF",
"h  c #6FE0FF",
"j  c #6FE1FF",
"k  c #70E1FF",
"l  c #71E1FF",
"z  c #71E2FF",
"x  c #72E2FF",
"c  c #73E2FF",
"v  c #73E3FF",
"b  c #74E2FF",
"n  c #74E3FF",
"m  c #75E3FF",
"M  c #76E4FF",
"N  c #77E4FF",
"B  c #77E5FF",
"V  c #78E5FF",
"C  c #79E5FF",
"Z  c #78E6FF",
"A  c #79E6FF",
"S  c #7AE6FF",
"D  c #7BE6FF",
"F  c #7AE7FF",
"G  c #7BE7FF",
"H  c #7CE7FF",
"J  c #7DE7FF",
"K  c #7CE8FF",
"L  c #7DE8FF",
"P  c #7EE8FF",
"I  c #7EE9FF",
"U  c #7FE9FF",
"Y  c #7FEAFF",
"T  c #80EAFF",
"R  c #81EAFF",
"E  c #80EBFF",
"W  c #81EBFF",
"Q  c #82EBFF",
"!  c #83EBFF",
"~  c #84EBFF",
"^  c #83ECFF",
"/  c #83EDFF",
"(  c #84ECFF",
")  c #85ECFF",
"_  c #84EDFF",
"`  c #85EDFF",
"'  c #86ECFF",
"]  c #86EDFF",
"[  c #87EDFF",
"{  c #87EEFF",
"}  c #88EEFF",
"|  c #89EEFF",
" . c #89EFFF",
".. c #8AEFFF",
"X. c #8BEFFF",
"o. c #8AF0FF",
"O. c #8BF0FF",
"+. c #8CF0FF",
"@. c #8DF1FF",
"#. c #8EF1FF",
"$. c #8EF2FF",
"%. c #8FF2FF",
"&. c #8FF3FF",
"*. c #90F3FF",
"=. c #91F3FF",
"-. c #91F4FF",
";. c #92F4FF",
":. c #93F5FF",
">. c #94F5FF",
",. c #95F5FF",
"<. c #94F6FF",
"1. c #95F6FF",
"2. c #96F6FF",
"3. c #96F7FF",
"4. c #97F7FF",
"5. c #98F7FF",
"6. c #97F8FF",
"7. c #98F8FF",
"8. c #99F8FF",
"9. c #99F9FF",
"0. c #9AF8FF",
"q. c #9AF9FF",
"w. c #9BF9FF",
"e. c #9BFAFF",
"r. c #9CFAFF",
"t. c #9CFBFF",
"y. c #9DFBFF",
"u. c #9EFBFF",
"i. c #9DFCFF",
"p. c #9EFCFF",
"a. c #9FFCFF",
"s. c #9FFDFF",
"d. c #A0FDFF",
"f. c #A1FDFF",
"g. c #A1FEFF",
"h. c #A2FEFF",
"j. c #A3FEFF",
"k. c #A2FFFF",
"l. c #A3FFFF",
"z. c #A4FFFF",
"x. c #A5FFFF",
"c. c #A6FFFF",
"v. c #A7FFFF",
"b. c #A8FFFF",
"n. c #A9FFFF",
"m. c #AAFFFF",
"M. c #ABFFFF",
"N. c #ACFFFF",
"B. c #ADFFFF",
"V. c #AEFFFF",
"C. c #AFFFFF",
"Z. c #B0FFFF",
"A. c None",
/* pixels */
"A.A.A.A.A.A.A.A.A.A.A.A.A.A.A.A.A.A.A.A.A.A.A.A.A.A.A.A.A.A.A.A.A.A.A.A.A.A.A.A.A.A.A.A.A.A.A.A.A.A.A.A.A.A.A.A.A.A.A.A.A.A.A.A.",
"A.A.A.A.A.A.A.A.A.A.A.A.A.A.A.A.A.A.A.A.A.A.A.A.A.A.A.A.A.A.A.A.A.A.A.A.A.A.A.A.A.A.A.A.A.A.A.A.A.A.A.A.A.A.A.A.A.A.A.A.A.A.A.A.",
"A.A.A.A.A.A.A.A.A.A.A.A.A.A.A.A.A.A.A.A.A.A.A.A.A.A.A.A.A.A.A.A.A.A.A.A.A.A.A.A.A.A.A.A.A.A.A.A.A.A.A.A.A.A.A.A.A.A.A.A.A.A.A.A.",
"A.A.A.A.A.A.A.A.A.A.A.A.A.A.A.A.A.A.A.A.A.A.A.A.A.A.A.A.A.z.z.m.m.m.z.A.A.A.A.A.A.A.A.A.A.A.A.A.A.A.A.A.A.A.A.A.A.A.A.A.A.A.A.A.",
"A.A.A.A.A.A.A.A.A.A.A.A.A.A.A.A.A.A.A.A.A.A.A.A.m.m.m.m.B.Z.Z.B.Z.Z.Z.Z.B.z.B.m.A.A.A.A.A.A.A.A.A.A.A.A.A.A.A.A.A.A.A.A.A.A.A.A.",
"A.A.A.A.A.A.A.A.A.A.A.A.A.A.A.A.A.A.A.A.A.m.m.B.B.m.z.z.z.z.z.z.z.z.z.z.l.z.m.B.B.m.m.A.A.A.A.A.A.A.A.A.A.A.A.A.A.A.A.A.A.A.A.A.",
"A.A.A.A.A.A.A.A.A.A.A.A.A.A.A.A.A.A.A.m.m.B.z.z.z.z.z.z.z.z.z.z.z.z.z.z.z.z.z.z.z.z.B.m.m.A.A.A.A.A.A.A.A.A.A.A.A.A.A.A.A.A.A.A.",
"A.A.A.A.A.A.A.A.A.A.A.A.A.A.A.A.A.m.m.B.z.z.z.z.z.z.z.z.z.z.z.z.z.z.z.z.z.z.z.z.z.z.z.z.B.m.m.A.A.A.A.A.A.A.A.A.A.A.A.A.A.A.A.A.",
"A.A.A.A.A.A.A.A.A.A.A.A.A.A.A.A.m.Z.l.z.z.z.z.z.z.z.z.z.z.z.z.z.z.z.l.J 4.z.z.l.l.z.z.z.z.z.Z.m.A.A.A.A.A.A.A.A.A.A.A.A.A.A.A.A.",
"A.A.A.A.A.A.A.A.A.A.A.A.A.A.m.Z.z.z.z.z.z.z.z.z.z.z.z.z.z.z.z.z.l.z.4.; u.u.D l.z.z.z.z.z.z.z.m.Z.m.A.A.A.A.A.A.A.A.A.A.A.A.A.A.",
"A.A.A.A.A.A.A.A.A.A.A.A.A.m.Z.z.z.z.z.z.z.z.z.z.z.z.z.z.z.z.z.z.z.z.D n m._ i z.*.T z.z.z.z.z.z.z.Z.m.A.A.A.A.A.A.A.A.A.A.A.A.A.",
"A.A.A.A.A.A.A.A.A.A.A.A.m.B.l.z.z.z.z.z.z.z.z.z.z.z.z.z.z.z.z.z.z.l.q *.m.d _ m.n D m.' } z.l.z.z.l.B.m.A.A.A.A.A.A.A.A.A.A.A.A.",
"A.A.A.A.A.A.A.A.A.A.A.m.B.l.z.z.z.z.z.z.z.z.z.z.z.z.z.z.z.z.z.z.m.*.q l.6.; u.l.5 4.z.q o.z.l.z.z.z.l.B.m.A.A.A.A.A.A.A.A.A.A.A.",
"A.A.A.A.A.A.A.A.A.A.m.B.l.l.z.z.z.z.z.z.z.z.z.z.z.z.z.z.z.z.z.l.u.n D m.Y B m.} i z.$.q l.z.z.z.z.z.l.l.B.m.A.A.A.A.A.A.A.A.A.A.",
"A.A.A.A.A.A.A.A.A.m.Z.l.z.z.z.z.z.z.z.z.z.z.z.z.z.z.z.z.z.;.B i 5 ; 5 d 5 T l.g _ B.B D z.l.z.z.z.z.z.z.z.Z.m.A.A.A.A.A.A.A.A.A.",
"A.A.A.A.A.A.A.A.A.Z.z.z.z.z.z.z.z.z.z.z.z.z.z.z.z.z.z.l.Y o ; 5 5 5 5 ; ; ; i ; *.u.5 4.m.l.z.z.z.z.z.z.z.z.Z.A.A.A.A.A.A.A.A.A.",
"A.A.A.A.A.A.A.A.m.z.z.z.z.z.z.z.z.z.z.z.z.z.z.z.z.z.z.J   i 5 ; 5 5 5 5 5 5 5 5 5 5 i 4.z.l.z.z.z.z.z.z.z.z.z.m.A.A.A.A.A.A.A.A.",
"A.A.A.A.A.A.A.m.Z.z.z.z.z.z.z.z.z.z.z.z.z.z.z.z.z.z.$.  5 5 5 5 ; ; ; 5 o ; 5 5 5 5 5 ; D l.z.z.z.z.z.z.z.z.z.Z.m.A.A.A.A.A.A.A.",
"A.A.A.A.A.A.A.B.z.z.z.z.z.z.z.z.z.z.z.z.z.z.z.z.z.a.i 5 5 5 ; ; l u._ i D q 5 + 5 5 5 + D l.l.z.z.z.z.z.z.z.z.l.m.A.A.A.A.A.A.A.",
"A.A.A.A.A.A.m.m.z.z.z.z.z.z.z.z.z.z.z.z.z.z.z.z.m._   i 5 ; l 5 o.m.n T m.D h n ; ; 5 ; *.z.l.z.z.z.z.z.z.z.z.z.B.m.A.A.A.A.A.A.",
"A.A.A.A.A.A.m.l.z.z.z.z.z.z.z.z.z.z.z.z.z.z.z.z.l.l ; 5 5 5 _ i l.0.; 0.l.5 *.z.i n g i l.l.z.z.z.z.z.z.z.z.z.z.z.m.A.A.A.A.A.A.",
"A.A.A.A.A.B.B.z.z.z.z.z.z.z.z.z.z.z.z.z.z.z.z.z.4.; 5 5 ; n Y B m.' d z.$.q z.0.5 u.l.0.z.z.z.z.z.z.z.z.z.z.z.z.z.B.m.A.A.A.A.A.",
"A.A.A.A.A.m.z.z.z.z.z.z.z.z.z.z.z.z.z.z.z.z.z.z.^ o 5 5   ^ i $.z.d } m.n Y m.J n m.l.z.z.z.z.z.z.z.z.z.z.z.z.z.z.z.m.A.A.A.A.A.",
"A.A.A.A.A.B.z.z.z.z.z.z.z.z.z.z.z.z.z.z.z.z.z.z.l ; 5 5 i ^ i l.0.; u.d.; 0.z.q *.z.l.l.z.z.z.z.z.z.z.z.z.z.z.z.z.z.B.A.A.A.A.A.",
"A.A.A.A.m.B.z.z.z.z.z.z.z.z.z.z.z.z.z.z.z.z.z.u.5 5 5 ; D D D m.Y n m.} d m.*.5 a.z.z.z.z.z.z.z.z.z.z.z.z.z.z.z.z.z.B.m.A.A.A.A.",
"A.A.A.A.m.m.z.z.z.z.z.z.z.z.z.z.z.z.z.z.z.z.z.0.; 5 5 ; Y i 4.l.5 $.z.g _ m.B D m.z.z.z.z.z.z.z.z.z.z.z.z.z.z.z.z.z.m.B.A.A.A.A.",
"A.A.A.A.z.z.z.z.z.z.z.z.z.z.z.z.z.z.z.z.z.z.z.4.; 5 ; 5 i g z.;.5 l.0.; 0.l.q ;.z.z.z.z.z.z.z.z.z.z.z.z.z.z.z.z.z.z.z.z.A.A.A.A.",
"A.A.A.A.B.z.z.z.z.z.z.z.z.z.z.z.z.z.z.z.z.z.z.0.; 5 5 5 ; } m.B D m.T l m.o.i l.z.z.z.z.z.z.z.z.z.z.z.z.z.z.z.z.z.z.z.B.A.A.A.A.",
"A.A.A.A.Z.z.z.z.z.z.z.z.z.z.z.z.z.z.z.z.z.z.l.l.g ; 5 5 o $.l.> ;.l.i } m.l ^ z.l.z.z.z.z.z.z.z.z.z.z.z.z.z.z.z.z.z.z.B.A.A.A.A.",
"A.A.A.z.Z.z.z.z.z.z.z.z.z.z.z.z.z.z.z.z.z.z.l.m.}   5 5 5 q v i z.4.; l.0.> 0.z.z.z.z.z.z.z.z.z.z.z.z.z.z.z.z.z.z.z.z.Z.z.A.A.A.",
"A.A.A.z.B.z.z.z.z.z.z.z.z.z.z.z.z.z.z.z.z.z.z.z.l.g ; 5 5 5 o 5 D l D m._ l z.z.z.z.z.z.z.z.z.z.z.z.z.z.z.z.z.z.z.z.z.B.m.A.A.A.",
"A.A.A.m.B.z.z.z.z.z.z.z.z.z.z.z.z.z.z.z.z.z.z.z.z.0.d 5 5 5 5 5 ; ; l 0.d } m.z.z.z.z.z.z.z.z.z.z.z.z.z.z.z.z.z.z.z.l.B.m.A.A.A.",
"A.A.A.m.B.z.z.z.z.z.z.z.z.z.z.z.z.z.z.z.z.z.z.z.l.m.T ; ; ; 5 5 5 5 ; ; i u.l.l.z.z.z.z.z.z.z.z.z.z.z.z.z.z.z.z.z.z.z.B.m.A.A.A.",
"A.A.A.m.Z.z.z.z.z.z.z.z.z.z.z.z.z.z.z.z.z.z.z.z.z.a.q $.4.5 ; ; 5 5 5 5 i u.z.z.z.z.z.z.z.z.z.z.z.z.z.z.z.z.z.z.z.z.z.Z.m.A.A.A.",
"A.A.A.z.Z.z.z.z.z.z.z.z.z.z.z.z.z.z.z.z.z.z.z.l.z.*.5 l.0.5 4.' ; 5 5 5   ' z.z.z.z.z.z.z.z.z.z.z.z.z.z.z.z.z.z.z.z.z.Z.z.A.A.A.",
"A.A.A.A.B.l.z.z.z.z.z.z.z.z.z.z.z.z.z.z.z.z.z.l.m.n Y m.Y l m.$.; i ; 5 ; l z.z.z.z.z.z.z.z.z.z.z.z.z.z.z.z.z.z.z.z.l.B.A.A.A.A.",
"A.A.A.A.B.z.z.z.z.z.z.z.z.z.z.z.z.z.z.z.z.z.z.z.u.q 4.l.5 $.z.d } Y   q 5 q u.z.z.z.z.z.z.z.z.z.z.z.z.z.z.z.z.z.z.z.l.B.A.A.A.A.",
"A.A.A.A.z.z.z.z.z.z.z.z.z.z.z.z.z.z.z.z.z.z.z.m.} i z.;.; l.0.; u.' o 5 ; 5 u.z.z.z.z.z.z.z.z.z.z.z.z.z.z.z.z.z.z.z.z.z.A.A.A.A.",
"A.A.A.A.m.m.z.z.z.z.z.z.z.z.z.z.z.z.z.z.z.z.z.z.g ^ B.D D m.T l z.n   q 5 d a.z.z.z.z.z.z.z.z.z.z.z.z.z.z.z.z.z.z.z.m.m.A.A.A.A.",
"A.A.A.A.m.Z.z.z.z.z.z.z.z.z.z.z.z.z.z.z.z.z.z.0.> 0.l.; 4.z.q $.u.5 5 5 ; n z.z.z.z.z.z.z.z.z.z.z.z.z.z.z.z.z.z.z.z.Z.m.A.A.A.A.",
"A.A.A.A.A.Z.z.z.z.z.z.z.z.z.z.z.z.z.z.z.z.z.m.T l m.o.i z.4.5 l.}   q 5 + T m.l.z.z.z.z.z.z.z.z.z.z.z.z.z.z.z.z.z.z.B.A.A.A.A.A.",
"A.A.A.A.A.z.z.z.z.z.z.z.z.z.z.z.z.z.z.z.z.z.l.d } m.l T m.D D z.l 5 5 5 ; 4.z.z.z.z.z.z.z.z.z.z.z.z.z.z.z.z.z.z.z.z.m.A.A.A.A.A.",
"A.A.A.A.A.m.Z.z.z.z.z.z.z.z.z.z.z.z.z.z.l.z.4.; l.0.; 0.l.; 4.0.; 5 5 ; l z.z.z.z.z.z.z.z.z.z.z.z.z.z.z.z.z.z.z.z.Z.m.A.A.A.A.A.",
"A.A.A.A.A.A.m.z.z.z.z.z.z.z.z.z.z.u.u.z.z.m.J n B._ d z.$.q l.T   q 5 + } z.z.z.z.z.z.z.z.z.z.z.z.z.z.z.z.z.z.z.z.m.A.A.A.A.A.A.",
"A.A.A.A.A.A.m.B.z.z.z.z.z.z.z.z.z.T ; Y 4.u.i ;.z.i } m.l T l.i ; 5 5 5 0.z.z.z.z.z.z.z.z.z.z.z.z.z.z.z.z.z.z.z.m.m.A.A.A.A.A.A.",
"A.A.A.A.A.A.A.m.z.z.z.z.z.z.z.z.l.d ; + + i q 4.4.q l.u.q 0.T   5 5 + B z.z.z.z.z.z.z.z.z.z.z.z.z.z.z.z.z.z.z.z.B.A.A.A.A.A.A.A.",
"A.A.A.A.A.A.A.m.B.z.z.z.z.z.l.z.$.+ i 5 5 ; 5 5 q g 0.^ q D ; 5 5 i   *.z.z.z.z.z.z.z.z.z.z.z.z.z.z.z.z.z.z.z.B.m.A.A.A.A.A.A.A.",
"A.A.A.A.A.A.A.A.B.z.z.z.z.z.l.z.} 5   ; ; 5 5 5 ; 5 ; 5 ; ; 5 5 q   D z.z.z.z.z.z.z.z.z.z.z.z.z.z.z.z.z.z.z.z.m.A.A.A.A.A.A.A.A.",
"A.A.A.A.A.A.A.A.A.Z.z.z.z.z.z.z.z.u.} n i ; ; 5 q 5 5 ; 5 5 5 q + d u.z.l.z.z.z.z.z.z.z.z.z.z.z.z.z.z.z.z.z.Z.A.A.A.A.A.A.A.A.A.",
"A.A.A.A.A.A.A.A.A.B.Z.l.z.z.z.z.z.z.m.z.l l l 5 ; ; 5 5 5 5 ;   l u.z.l.z.z.z.z.z.z.z.z.z.z.z.z.z.z.z.z.z.B.B.A.A.A.A.A.A.A.A.A.",
"A.A.A.A.A.A.A.A.A.A.m.B.l.z.z.z.z.l.z.0.5 u.u.q D n ; ; 5 5 h X.l.z.l.z.z.z.z.z.z.z.z.z.z.z.z.z.z.z.z.z.B.m.A.A.A.A.A.A.A.A.A.A.",
"A.A.A.A.A.A.A.A.A.A.A.m.B.l.z.z.z.l.m.T g m.$.q z.;.q 4.*.; 0.m.z.l.z.z.z.z.z.z.z.z.z.z.z.z.z.z.z.l.l.B.m.A.A.A.A.A.A.A.A.A.A.A.",
"A.A.A.A.A.A.A.A.A.A.A.A.m.B.l.l.z.z.z._ *.z.g T B.D D B.' l z.z.z.z.z.z.z.z.z.z.z.z.z.z.z.z.z.z.z.l.B.m.A.A.A.A.A.A.A.A.A.A.A.A.",
"A.A.A.A.A.A.A.A.A.A.A.A.A.m.Z.z.z.z.z.m.z.l.Y 0.a.; ;.z.i } z.z.z.z.z.z.z.z.z.z.z.z.z.z.z.z.z.z.z.Z.m.A.A.A.A.A.A.A.A.A.A.A.A.A.",
"A.A.A.A.A.A.A.A.A.A.A.A.A.A.B.B.z.z.z.z.z.z.m.z.0.Y l.4.; d.z.z.z.z.z.z.z.z.z.z.z.z.z.z.z.z.z.z.Z.m.A.A.A.A.A.A.A.A.A.A.A.A.A.A.",
"A.A.A.A.A.A.A.A.A.A.A.A.A.A.A.A.m.B.l.z.z.z.z.z.z.z.z.*.T z.z.z.z.z.z.z.z.z.z.z.z.z.z.z.z.z.Z.m.A.A.A.A.A.A.A.A.A.A.A.A.A.A.A.A.",
"A.A.A.A.A.A.A.A.A.A.A.A.A.A.A.A.A.B.m.B.l.z.z.z.z.z.z.z.z.z.z.z.z.z.z.z.z.z.z.z.z.z.z.z.B.m.m.A.A.A.A.A.A.A.A.A.A.A.A.A.A.A.A.A.",
"A.A.A.A.A.A.A.A.A.A.A.A.A.A.A.A.A.A.A.m.m.B.z.z.z.z.z.z.z.z.z.z.z.z.z.z.z.z.z.z.z.z.B.m.m.A.A.A.A.A.A.A.A.A.A.A.A.A.A.A.A.A.A.A.",
"A.A.A.A.A.A.A.A.A.A.A.A.A.A.A.A.A.A.A.A.A.m.z.Z.B.m.z.l.z.z.z.z.z.z.z.l.z.z.m.B.B.m.m.A.A.A.A.A.A.A.A.A.A.A.A.A.A.A.A.A.A.A.A.A.",
"A.A.A.A.A.A.A.A.A.A.A.A.A.A.A.A.A.A.A.A.A.A.A.A.m.m.m.m.Z.Z.Z.B.B.Z.Z.Z.B.z.m.m.A.A.A.A.A.A.A.A.A.A.A.A.A.A.A.A.A.A.A.A.A.A.A.A.",
"A.A.A.A.A.A.A.A.A.A.A.A.A.A.A.A.A.A.A.A.A.A.A.A.A.A.A.A.A.z.m.m.m.m.z.A.A.A.A.A.A.A.A.A.A.A.A.A.A.A.A.A.A.A.A.A.A.A.A.A.A.A.A.A.",
"A.A.A.A.A.A.A.A.A.A.A.A.A.A.A.A.A.A.A.A.A.A.A.A.A.A.A.A.A.A.A.A.A.A.A.A.A.A.A.A.A.A.A.A.A.A.A.A.A.A.A.A.A.A.A.A.A.A.A.A.A.A.A.A.",
"A.A.A.A.A.A.A.A.A.A.A.A.A.A.A.A.A.A.A.A.A.A.A.A.A.A.A.A.A.A.A.A.A.A.A.A.A.A.A.A.A.A.A.A.A.A.A.A.A.A.A.A.A.A.A.A.A.A.A.A.A.A.A.A.",
"A.A.A.A.A.A.A.A.A.A.A.A.A.A.A.A.A.A.A.A.A.A.A.A.A.A.A.A.A.A.A.A.A.A.A.A.A.A.A.A.A.A.A.A.A.A.A.A.A.A.A.A.A.A.A.A.A.A.A.A.A.A.A.A."
};
