<?xml version="1.0" encoding="utf-8"?>
<!-- Generator: Adobe Illustrator 22.0.1, SVG Export Plug-In . SVG Version: 6.00 Build 0)  -->
<svg version="1.1" id="svg" xmlns="http://www.w3.org/2000/svg" xmlns:xlink="http://www.w3.org/1999/xlink" x="0px" y="0px"
	 viewBox="0 0 1024 1024" style="enable-background:new 0 0 1024 1024;" xml:space="preserve">
<style type="text/css">
	.st0{fill:#FFFFFF;}
	.st1{fill:#66DBFF;}
	.st2{fill:#00FFFF;}
	.st3{fill:#A4FFFF;}
</style>
<title>schleems</title>
<g id="svgg">
	<path id="path0" class="st0" d="M488,30.2l-1.6,0.4h1.6c1,0,2-0.2,3-0.4l1.3-0.4H491C490,29.8,489,30,488,30.2 M29.7,490
		c0,1,0,1.5,0.2,0.9c0.1-0.6,0.1-1.3,0-1.9C30,488.5,29.7,489,29.7,490 M29.7,535.1c0,0.9,0.2,1.7,0.4,1.8s0.3-0.6,0.2-1.6
		C30.1,533.1,29.7,533,29.7,535.1 M990.7,570.6c0,1,0,1.5,0.2,0.9c0.1-0.6,0.1-1.3,0-1.9C990.8,569.2,990.7,569.7,990.7,570.6
		 M490.1,994.2c0.6,0.1,1.3,0.1,1.9,0c0.5,0,0-0.2-0.9-0.2C490.1,994,489.5,994,490.1,994.2 M533.1,994.2c0.6,0.1,1.3,0.1,1.9,0
		c0.5,0,0-0.2-0.9-0.2S532.6,994,533.1,994.2"/>
	<path id="path1" class="st1" d="M566.9,111.5c-0.9,1.8-1.6,3.6-2.3,5.5c-0.9,2.7-2.7,7.4-3.8,10.5c-1.1,3.1-2.7,7.5-3.5,9.7
		c-0.8,2.2-1.6,4.5-1.9,5.1c-0.2,0.6-0.9,2.4-1.5,4c-0.6,1.6-1.5,4-2,5.4c-0.5,1.3-1.3,3.5-1.7,4.8c-0.4,1.3-1,2.9-1.2,3.5
		c-0.6,1.5-1.9,4.8-8.4,22.9c-9.6,26.5-8.3,24.2-12.8,24.2c-6.7,0.2-13.3,0.8-19.9,1.9c-7.4,1.1-14.8,2.9-21.9,5.4
		c-24.8,8.1-55.2,33.7-67,56.5c-0.4,0.8-1.6,2.7-2.6,4.5c-5.9,10.4-11,21.1-15.4,32.3c-1,2.5-2,5-2.3,5.4c-0.3,0.6-0.5,1.2-0.5,1.9
		c0,0.5-0.1,1-0.3,1.4c-1.3,2.7-2.4,5.5-3.2,8.4c-0.5,1.3-1,2.9-1.3,3.5s-0.8,1.9-1.1,3s-0.8,2.4-1.1,3c-0.2,0.6-0.9,2.4-1.5,4
		c-0.6,1.6-1.5,4-2,5.4c-0.5,1.3-2,5.8-3.3,9.9c-4.8,14.2-8.1,28.9-9.9,43.8c-0.8,11.3-0.8,22.7,0,34c4.5,31,15.9,53.5,38.4,75.6
		l6.9,6.8l-0.9,2.9c-0.9,2.7-3.7,10.8-4.6,13.1c-1.3,3.4-5.9,16.1-9.1,25c-2.5,7.1-6.9,18.8-9,24.5c-0.5,1.2-1.2,3.2-1.6,4.6
		c-0.4,1.3-1,2.9-1.2,3.5c-0.4,1-1,2.7-3.8,10.2c-0.6,1.6-1.5,4.2-2.1,5.8l-3.5,9.8c-2.7,7.5-6.1,17-7.8,21.6
		c-2.9,7.9-3.3,9.1-3.7,10.1c-1,2.7-2.3,6.1-3.2,8.9c-0.5,1.6-1.6,4.5-2.3,6.5c-0.8,1.9-3,8.1-4.9,13.4c-2,5.4-4,11.2-4.6,12.8
		l-2.1,5.8c-2.7,7.4-3.4,9.2-3.8,10.2s-1.1,2.9-1.9,5.1c-7.2,20.4-8.7,24.2-9.6,25.1s-3.3,0-9.2-2.2c-1.2-0.5-5.6-2.1-9.9-3.6
		l-12.6-4.6c-2.7-1-7.6-2.8-11-4c-9.1-3.3-12-4.4-13.2-4.9c-0.6-0.2-2.7-1-4.6-1.6c-1.9-0.6-4-1.4-4.6-1.7c-2.3-1.1-3.5-0.4-4.6,2.7
		c-0.5,1.6-1.2,3.4-1.5,4c-0.3,0.6-0.9,2.2-1.3,3.5c-0.5,1.3-1.6,4.5-2.5,7s-1.9,5.2-2.1,5.9c-0.5,1.4-2,5.4-2.7,7.3
		c-0.6,1.4-5.8,15.7-9.2,25.1c-2.7,7.6-3,8.8-2.1,9.3c0.5,0.3,8.1,3.1,10.8,4l5.9,2.2c2.5,0.9,7.1,2.7,10.2,3.7l7.8,2.9
		c1.2,0.5,4.3,1.6,7,2.7c21.1,7.5,25,9.1,25,10.2c-1.3,4.8-3,9.6-4.8,14.2c-0.3,0.6-0.8,2.2-1.3,3.5s-1.6,4.5-2.5,7
		c-0.9,2.5-1.8,5.1-2,5.6c-0.2,0.6-0.4,1.1-0.6,1.6c-0.5,0.9-0.8,1.9-1.1,3c-0.3,1-0.6,2-1.1,3c-0.4,1-0.8,1.9-1.1,3
		c-0.3,1-0.6,2-1.1,3c-1.4,3.3-2.5,6.6-3.2,10.1c0,1.3,0,1.3,12.8,5.8c5.6,2,5.4,2.1,7.9-5.1c0.4-1.2,1.5-4.3,2.4-6.8
		c0.9-2.5,3.9-10.6,6.5-18s5.1-13.9,5.4-14.5s1-2.7,1.7-4.5c1.9-5.2,0.6-5.2,17.7,1c3.4,1.2,7,2.5,7.9,2.7c3.8,1.1,3.8,1.4,0.6,10.2
		c-1,2.8-3.1,8.6-4.7,12.9s-3,8.3-3.2,8.9c-0.2,0.6-0.8,1.9-1.1,3c-0.3,1-0.8,2.4-1.1,3s-0.7,1.9-1.1,3c-0.3,1-0.9,2.4-1.1,3
		c-1.2,2.7-3.7,10.4-4,11.8c-0.3,1.4-0.6,1.6,5.9,4c1.8,0.6,3.7,1.4,4.3,1.6c2.3,0.9,4.6,1.6,7,2.1c0.8,0,1.5-1.3,3.4-6.5
		c4-10.8,8.7-24,13.9-38.4c4-11.2,3.2-10.6,10.8-8.3c5.2,1.5,6.7,1.9,13.4,3.5c8.7,2.1,8.4,0.8,3.9,13.4c-9,24.9-8.8,24.5-11.8,32.5
		c-2.4,6.5-4.9,13.4-4.9,14c5,2.5,10.2,4.6,15.5,6.2c3.4,1.1,2.7,2.6,10.1-18.4l3.5-9.8c0.6-1.6,1.5-4.2,2.1-5.8
		c2.7-7.2,3.4-9.2,3.8-10.2c0.9-2.3,2.3-6,3-8.3c0.7-2.2,1.5-4.4,2.5-6.5l0.8-1.9h14.8c8.1,0,15,0.2,15.1,0.3
		c0.2,0.2-0.5,3.8-2.4,9.1c-1,2.5-3.3,8.8-5.1,14c-1.9,5.2-4.2,11.5-5.1,14c-0.9,2.5-2,5.6-2.5,7c-0.4,1.3-1,3-1.3,3.6
		c-0.7,1.7-1.3,3.2-2.4,6.3c-0.5,1.5-1.7,4.6-2.5,7c-3,8.1-3.4,9.5-2.7,10.4c5.4,2.7,11.1,4.9,16.9,6.5c1,0,1.2-0.3,7-16.3
		c2.4-6.5,4.7-12.9,5.1-14c0.5-1.2,1.2-3.2,1.6-4.6c0.4-1.3,1-3,1.3-3.6c0.8-1.9,1.6-3.8,2.2-5.8c0.3-0.9,0.6-1.8,1.1-2.7
		c0.3-0.5,0.4-1.1,0.4-1.6c0-0.6,0.2-1.2,0.5-1.6c0.8-1.5,1.4-3.2,1.9-4.8c0.8-2.4,2-5.8,2.7-7.5c0.7-1.8,2.7-6.9,4.2-11.5
		c2.9-8.1,3.9-9.7,5.9-9.8c0.7-0.1,1.5-0.2,2.2-0.5l7.2-2.7c20.2-8.1,37.9-21.5,51.2-38.7c4.5-5.8,8.6-11.8,12.3-18
		c0.1-0.5,0.4-0.9,0.8-1.3c3.2-3.6,13.4-25.8,19.1-41.7c0.5-1.4,1-2.8,1.7-4.2c0.3-0.6,0.5-1.2,0.5-1.9c0-0.5,0.2-1.1,0.5-1.5
		c0.7-1.3,1.2-2.6,1.7-4c0.6-1.9,1.4-4,1.6-4.6c0.5-1.3,2.2-5.7,3.8-10.2c0.6-1.8,2.1-5.9,3.3-9.1c1.2-3.3,2.4-6.5,2.7-7.3
		s1.2-3.4,2.1-5.9c2.3-6.2,6.3-18.1,7.3-21.9c2.5-8.8,4.1-15.2,4.6-17.9c0.3-1.6,0.8-4.2,1-5.6c3.3-17.6,4-38.6,1.5-51.4
		c-2.6-15.5-8.4-30.4-17-43.6c-3-4.6-3.2-3.4,2.4-18.8c0.6-1.6,1.5-4.1,2.1-5.8c2.7-7.6,3.4-9.2,3.8-10.2c0.2-0.6,0.8-2.2,1.3-3.5
		s1.6-4.5,2.5-7s2.7-7.1,3.7-10.2c2.7-7.7,8.4-23.3,9.7-26.9l2.1-5.8l2.2-5.9c2.7-7.6,3.4-9.2,3.8-10.2c0.4-1,0.8-2.2,1.3-3.5
		c0.5-1.3,1.5-4.5,2.5-7c2.9-7.9,3.5-9.7,7.2-19.6c1.9-5.4,4.3-11.7,5.2-14.2s2-5.6,2.5-7s1-2.9,1.3-3.5c0.5-1.3,2.1-5.6,4-10.8
		c0.7-2.1,2.1-5.8,3-8.3c2.2-6,3.1-8.5,6.5-17.7s5.8-15.9,6.5-17.5c0.3-0.6,0.6-1.5,0.8-2c0.4-1.3,2.1-1.2,6.2,0.3
		c35.1,12.8,31.4,12.1,33.3,6.7c1.5-4.4,3.2-9,3.8-10.4c0.2-0.6,0.8-2.2,1.3-3.5s1.6-4.5,2.5-7c0.9-2.5,1.9-5.2,2.2-5.9
		c0.2-0.8,1.2-3.4,2.1-5.9c9.9-26.9,10.4-28.3,8.8-28.8c-0.5-0.2-1.4-0.5-2-0.8c-0.6-0.3-2.2-0.8-3.5-1.3s-4.5-1.6-7-2.5
		c-2.5-0.9-7.1-2.7-10.2-3.7c-13.4-4.8-13.2-4.7-11.3-9.5c0.6-1.6,1.6-4.3,2.2-5.9c2.7-7.6,3.4-9.2,3.8-10.2c0.2-0.6,1.2-3.1,2-5.6
		s2-5.5,2.4-6.7c0.8-2,2.7-7.1,7.9-21.8c1.1-3.1,2.8-7.7,3.8-10.2c0.9-2.5,1.9-5.2,2.2-5.9c0.2-0.8,1.2-3.4,2.2-5.9
		c2.3-6,2.7-7.6,2.4-8.1c-5-2.6-10.3-4.7-15.7-6.2l-2.3-0.7l-0.8,1.7c-0.8,1.7-3.2,8.1-5.2,13.7l-2,5.6c-0.6,1.6-1.7,4.7-2.5,6.9
		s-1.9,5.4-2.5,6.9l-2.2,5.9c-0.6,1.7-1.3,3.6-1.6,4.2c-0.9,2.3-2.3,6-3,8.3c-0.4,1.3-1,2.9-1.3,3.5c-0.3,0.6-1.1,2.9-1.9,5.1
		c-2.2,6.1-2.7,7.8-5.5,15.3l-2.7,7h-2c-1.7-0.2-3.4-0.6-4.9-1.2c-1.6-0.6-4.3-1.6-5.9-2.2c-15.6-5.7-14.4-5.1-14.1-7.2
		c1-3.7,2.2-7.3,3.6-10.8c0.3-0.6,0.8-2.2,1.3-3.5c0.5-1.3,1.6-4.5,2.5-7s3.2-8.8,5.1-14l5.1-14c0.9-2.5,1.9-5.2,2.1-5.9
		s0.9-2.4,1.4-3.8c0.5-1.3,1.4-3.7,2-5.4c0.6-1.6,1.3-3.4,1.5-4c0.5-1.3,2.9-8.1,4.1-11.7c1.2-3.6,1.4-3.7-8.8-7.5
		c-1.7-0.6-3.5-1.3-3.9-1.5c-3.8-2-4.7-1.4-6.9,4.6c-0.8,2.3-1.9,5.2-2.4,6.4c-0.5,1.2-2.4,6.6-4.4,12.1l-4.5,12.8
		c-0.6,1.6-1.5,4.1-2.1,5.8c-2.7,7.6-3.4,9.2-3.8,10.2c-0.4,1-0.8,2.2-1.2,3.5c-0.8,2.4-2.2,6.4-3,8.3c-0.3,0.6-1,2.7-1.8,4.8
		c-3.6,10.2-4.9,13.4-5.4,14.2s-12.5-2.9-19.3-5.8l-4.2-1.7c-1.2-0.4-2.3-0.9-3.4-1.6c0.6-3.4,1.6-6.7,3-9.9c0.2-0.6,0.7-1.8,1-2.7
		c1.3-3.9,5.1-14.1,5.4-15.1c0.3-1,2.7-6.9,5.1-14c2.4-7.1,5.2-14.5,6-16.4s1.8-4.8,2.3-6.5c0.9-2.9,2.3-6.7,3.2-8.9
		c1.4-3.4,2.6-6.9,3.5-10.5c0.3-1.4-0.8-2.2-5.8-3.7c-0.8-0.2-3.7-1.3-6.6-2.3c-3.8-1.3-5.4-1.7-5.8-1.3c-2.9,6.4-5.4,13-7.6,19.7
		c-1,2.9-2.4,6.7-3.3,8.9c-0.4,1-4.4,11.9-5.4,15.1c-0.3,0.9-0.8,2.1-1,2.7c-0.4,1-1.2,3.1-3.8,10.2l-2.2,5.9l-2.1,5.8
		c-6,16.6-6.2,17.1-7.3,17.1c-1.9-0.3-3.7-0.6-5.5-1.1c-5.6-1.3-8.4-1.9-13-2.7c-10.5-1.8-9.8-1.2-7.6-7.3c0.6-1.5,1.8-4.9,2.7-7.5
		c1.9-5.6,3.7-10.3,4.3-11.8c0.2-0.6,1.1-2.9,1.9-5.1c3.9-10.9,5.4-15.1,11.7-32.5c3.8-10.4,7-19.3,7.3-19.9
		c1.3-2.6,2.1-5.5,2.3-8.4c-2.4-1.1-4.9-2.1-7.4-2.9c-3.8-1.3-7.6-2.7-8.2-3C568,110.7,567.6,110.7,566.9,111.5 M556.2,279.9
		c1.3,0.6,1.2,1.6-1,7.6c-1,2.9-2.3,6.4-2.7,7.7c-0.4,1.3-1.1,3-1.4,3.8c-0.7,1.7-1.2,3-2,5.4c-0.3,1-0.9,2.4-1.1,3
		c-0.2,0.6-1.7,4.6-3.3,8.9c-5,14.1-6.8,19-8.8,24.5c-1.1,3-2.2,6.1-2.5,7c-0.3,0.9-0.8,2.1-1,2.7c-0.4,1-1.2,3.1-3.8,10.2l-2.2,5.9
		c-0.6,1.6-1.5,4.2-2.1,5.8c-3.3,8.9-5.4,14.6-8.7,24c-2.1,5.8-4.4,12.1-5.1,14c-0.8,1.9-1.7,4.6-2.2,5.9s-1,2.9-1.2,3.5
		c-0.6,1.5-2.3,6-4.3,11.8c-0.9,2.7-2.3,6.3-3,8.1c-0.7,1.8-2.5,6.7-4,11s-3.1,8.8-3.6,9.9c-0.5,1.2-1.2,3.2-1.6,4.6
		c-1.5,4.6-2.4,4.8-7.9,1.5c-6.3-3.7-11.8-8.5-16.4-14.1c-1.5-2.2-1.5-2.9,0-6.5c0.3-0.6,0.9-2.4,1.5-4c0.6-1.6,1.5-4.1,2-5.4
		c0.5-1.3,1.3-3.5,1.7-4.8s1-2.9,1.2-3.5c0.2-0.6,1-2.5,1.6-4.3s1.4-3.7,1.6-4.3c0.2-0.6,0.7-1.8,1-2.7l6-16.7
		c3-8.3,6.1-16.8,6.8-18.8s1.5-4.2,1.8-4.8c0.8-2,2.2-5.9,3-8.3c0.4-1.3,1-2.9,1.3-3.5s0.8-2.2,1.3-3.5c0.4-1.3,1.4-4.1,2.2-6.2
		c1.6-4.2,2.1-5.5,6.7-18.3c1.8-5,3.5-9.8,3.8-10.5s1.2-3.4,2.1-5.9c0.9-2.5,2.1-5.7,2.5-7c0.5-1.3,1.1-3.1,1.5-4s1.4-3.7,2.3-6.2
		c2.7-7.6,3.5-9.9,4.2-11.6s3.4-9.5,3.4-9.7c2.6-1.1,5.3-1.8,8.1-2.1c7.4-0.8,14.9-0.8,22.3,0 M581.1,286.6l4.5,1.7l4.3,1.6
		c2.2,0.9,6,2.3,8.3,3c7.5,2.5,7.4,1.5,2.2,15.8c-0.9,2.5-2.3,6.3-3,8.3c-0.8,2.1-1.5,4.2-1.8,4.8c-0.5,1.2-2.7,7.2-9.4,25.8
		c-2.6,7.1-5.1,14.2-5.7,15.7c-0.6,1.6-1.5,4.1-2.1,5.8c-2.7,7.5-3.4,9.2-3.8,10.2c-0.4,1-1.2,3.3-2.1,5.9c-0.9,2.7-2.1,5.8-2.5,7
		c-1.1,2.9-11.8,32.4-13.4,37.1c-0.7,2.1-1.5,4.2-1.8,4.8c-0.3,0.6-0.9,2.5-1.6,4.2l-2.3,6.2c-0.6,1.7-1.3,3.6-1.6,4.2
		c-0.2,0.6-0.8,2.2-1.3,3.5c-0.5,1.3-1.6,4.5-2.5,7c-0.9,2.5-2.4,6.5-3.2,8.9c-2.4,7-5.2,14.4-6.1,16.5c-0.9,2.2-2.2,2.7-5.1,1.4
		l-2.7-1l-3-1.2c-1-0.5-3.1-1.2-4.6-1.7s-3.2-1.1-3.8-1.3c-0.6-0.3-2.5-1-4.3-1.7c-5.6-2-5.6-0.8-0.3-15.3c1.2-3.3,2.7-7.7,3.5-9.9
		c0.9-2.2,1.6-4.5,1.9-5.1c0.9-2.2,2.3-6,3.2-8.9c0.5-1.6,1.6-4.5,2.3-6.5c0.8-1.9,2.6-6.9,4-11c1.5-4.1,3.1-8.6,3.6-9.9
		c0.5-1.3,1.4-3.8,2-5.4c0.6-1.6,1.3-3.4,1.5-4c0.2-0.6,0.8-2.2,1.2-3.5c0.8-2.6,2.3-6.5,3.1-8.3c0.2-0.6,0.8-2.2,1.3-3.5
		c0.5-1.3,1.6-4.5,2.5-7c0.9-2.5,2.2-5.9,2.7-7.5s3.4-9.2,6.2-16.9c2.8-7.7,5.4-15.1,5.9-16.4c0.5-1.3,1-2.9,1.2-3.5
		c0.7-1.7,2.3-5.8,2.7-7.3c0.2-0.7,1.2-3.4,2.1-5.9c0.9-2.5,1.9-5.2,2.2-5.9c0.2-0.8,1.2-3.4,2.2-5.9s2.9-7.8,4.3-11.8
		c5.2-14.6,5.1-14.4,8.7-13 M497.8,299.7c-0.7,3-1.6,5.9-2.7,8.7c-2.3,6.4-5.4,14.6-7.5,20.7c-0.5,1.3-1.1,2.9-1.4,3.5
		c-0.3,0.6-1,2.7-1.6,4.6c-0.6,1.9-1.3,4-1.6,4.6c-0.3,0.6-1.9,5.2-3.8,10.2c-1.8,5-4.1,11.3-5.1,14c-1,2.7-2.4,6.5-3.1,8.6
		c-0.8,2.1-2.1,5.8-3,8.3c-0.9,2.5-2,5.6-2.5,7s-1,2.9-1.3,3.5c-0.2,0.6-0.8,1.9-1.1,3c-0.8,2.2-1.3,3.5-2,5.4
		c-0.3,0.8-0.6,1.6-0.8,2.4c-0.3,1.4-4.5,12.4-5.6,14.7c-2.7,5.6-3.1-9.1-0.6-19.8c1.7-6.6,3.8-13.1,6.3-19.4
		c2.2-6.1,4.4-12.1,4.8-13.4c0.4-1.3,1-2.9,1.2-3.5s1-2.5,1.6-4.3c0.6-1.8,1.4-3.7,1.6-4.3c0.2-0.6,0.7-1.9,1.1-3
		c0.3-1,0.9-2.4,1.1-3c0.2-0.6,0.8-2.2,1.3-3.5s1.6-4.5,2.5-7s2.6-7,3.6-9.9c3.1-9.7,8.1-18.7,14.8-26.3c3.6-3.9,4.4-4.3,4.1-1.7
		 M630.2,304.6c22.7,8.1,21.7,7.2,18.8,14.9c-1.1,2.7-2.3,6.1-2.7,7.4c-0.4,1.3-1.3,3.4-1.8,4.7c-0.5,1-0.9,2.2-1,3.3
		c0,0.5-0.1,1-0.5,1.3c-0.4,0.4-0.6,1-0.7,1.5c-0.2,0.7-1,3.3-2,5.8c-0.9,2.5-2.1,5.7-2.5,7c-0.4,1.3-1,2.9-1.3,3.5
		c-0.2,0.6-2.1,5.6-4.1,11c-7.1,19.6-7.9,21.8-8.4,22.9c-0.2,0.6-0.8,2.2-1.2,3.5c-0.8,2.3-2.1,6-3,8.3c-0.2,0.6-0.7,1.9-1.1,3
		s-0.8,2.4-1.1,3c-0.2,0.6-0.9,2.5-1.6,4.2l-2.2,5.9c-0.6,1.6-2.7,7.3-4.6,12.8c-1.9,5.5-3.8,10.4-4,11c-0.3,0.8-0.6,1.6-0.9,2.4
		c-0.3,1-0.6,2-1.1,3c-0.4,0.9-1.5,4-2.7,7c-1.2,3-2.4,6.7-3,8.3c-2.8,7.7-4.6,12.6-6.5,17.7c-2.7,7.3-8.7,23.8-10.8,29.4
		c-2.9,8.1-2.1,7.7-8.6,2.4c-2.8-2.3-8.1-6.1-11.5-8.4c-2.3-1.4-4.6-3-6.6-4.8c2-7.3,4.5-14.5,7.4-21.5c0.2-0.6,0.8-2.2,1.2-3.5
		c0.8-2.3,2.1-6,3-8.3c0.2-0.6,0.7-1.9,1.1-3c0.3-1,0.8-2.4,1.1-3c0.3-0.6,0.9-2.4,1.5-4c1.3-3.8,7.1-19.8,7.7-21.2
		c0.6-1.4,1.2-3.3,3.8-10.2l2.2-5.9l2.2-5.9c2.7-7.6,3.4-9.2,3.8-10.2s2.2-5.9,4.3-11.8c2.1-5.9,5.1-14,6.5-18
		c1.5-4,2.9-7.9,3.1-8.6c0.2-0.7,1.2-3.4,2.2-5.9c0.9-2.5,2.4-6.5,3.3-8.9s2.3-6.4,3.2-8.9s3.2-8.8,5.1-14c6.9-19.2,7.6-20.9,8.8-21
		L630.2,304.6 M445.8,530c4.1,2.2,7.6,4,7.7,4c3.4,1.4,6.6,3,9.7,4.8c-1.8,6.7-4.1,13.3-6.7,19.7c-0.2,0.6-0.8,2.2-1.3,3.5
		c-0.9,2.7-4,11.3-5.4,14.8c-0.5,1.2-1.6,4.3-2.5,7c-0.9,2.7-1.9,5.4-2.1,5.9s-0.9,2.4-1.5,4c-0.6,1.6-1.5,4-2,5.4
		c-0.5,1.3-1.1,3-1.4,3.8c-0.2,0.8-1.2,3.4-2.1,5.9c-0.9,2.5-2,5.6-2.5,7s-1,2.9-1.3,3.5c-0.3,0.6-2.7,6.9-5.1,14
		c-2.4,7.1-5.2,14.5-6,16.4c-0.8,1.9-1.7,4.6-2.2,5.9c-0.4,1.3-1,2.9-1.2,3.5s-0.9,2.4-1.5,4c-0.6,1.6-1.5,4-2,5.4
		c-0.5,1.3-1.3,3.5-1.7,4.8c-0.4,1.3-2,5.7-3.5,9.7c-1.5,4-3.3,8.8-4,10.8c-1.5,4.1-5.4,14.7-6.8,18.8c-0.6,1.6-1.3,3.4-1.5,4
		s-0.8,2.2-1.2,3.5c-0.8,2.5-2.2,6.4-3,8.3c-0.3,0.6-1.2,3.3-2.2,5.9c-0.9,2.7-1.9,5.4-2.2,5.9s-1.1,2.8-1.9,5
		c-2,5.4-1.5,5.4-14.2,0.6c-2.5-0.9-5.6-2.1-7-2.5c-8.2-2.8-8.3-2.8-6.1-8.5c0.8-2.1,1.6-4.4,1.8-5.1s1.2-3.3,2-5.6
		s2.9-7.8,4.4-12.1c1.5-4.3,3-8.3,3.3-8.9c0.6-1.3,3.6-9.7,6.4-17.5l3.2-8.9c1.7-4.7,5.4-14.8,5.9-16.4c0.2-0.7,2-5.7,4-11
		c2-5.3,4-11,4.5-12.6c1-3.1,2.5-7,3.3-8.9c0.2-0.6,0.8-2.2,1.3-3.5c0.8-2.3,2.3-6.5,5.8-15.9c0.9-2.4,1.8-4.9,2-5.6
		s1.2-3.4,2.2-5.9c0.9-2.5,1.9-5.2,2.2-5.9c0.4-1.3,5.2-14.5,6.8-18.6c0.5-1.2,1.2-3.3,1.6-4.6c0.4-1.3,1-2.9,1.2-3.5
		c0.9-2,2.3-5.9,3.3-8.9c0.5-1.6,1.6-4.5,2.3-6.5s2.8-7.6,4.7-12.6c3-8.3,4-10.5,4.7-10.5C438.2,526,441.7,527.8,445.8,530
		 M488.4,547.7c1.9,0.7,5.8,2.2,8.7,3.3c6.6,2.4,11.5,4.9,11.9,5.9c-0.6,3.5-1.6,6.9-3,10.2c-0.3,0.6-0.8,1.9-1.1,3s-0.8,2.4-1.1,3
		c-0.2,0.6-0.7,1.9-1.1,3c-0.3,1-0.8,2.4-1.1,3c-0.3,0.6-1.1,2.9-1.9,5.1c-0.8,2.2-3,8.3-4.8,13.4c-1.9,5.2-4.1,11.2-4.8,13.4
		c-0.8,2.2-1.6,4.5-1.9,5.1c-0.6,1.5-2.3,6.1-4.4,11.8c-0.9,2.7-1.9,5.4-2.2,5.9c-0.9,2.3-2.3,6.2-8.1,22.3l-4.3,11.8
		c-1.3,3.7-3.2,8.9-4.1,11.6c-0.9,2.7-1.9,5.4-2.2,5.9s-1,2.5-1.6,4.2c-0.6,1.7-1.6,4.4-2.2,5.9c-0.6,1.6-1.6,4.5-2.3,6.6
		c-0.7,2.1-2.2,6-3.2,8.9s-4.5,12.2-7.6,21c-8.3,22.9-10.5,28.6-11.1,29.4c-0.6,0.8-10.8,0.7-17.5-0.9l-4.8-1.1
		c-6.8-1.6-7-1.8-4.8-8.1c2-5.7,12.7-35.1,14-38.4c0.4-1.2,1.6-4.3,2.5-7c0.9-2.7,1.9-5.4,2.1-5.9s1-2.5,1.6-4.2l2.2-5.9l4.4-12
		c1.8-5,4.6-12.7,6.2-16.9s3.2-8.9,3.6-10.2c0.8-2.4,2.2-6.2,3.1-8.3c0.2-0.6,0.7-1.9,1.1-3c0.3-1,0.8-2.4,1.1-3
		c0.2-0.6,0.7-1.9,1.1-3c0.3-1,0.8-2.4,1.1-3c1-2.6,13.4-36.5,14-38.4c0.2-0.8,1.2-3.4,2.1-5.9s2-5.7,2.5-7c0.8-2.4,1.2-3.3,2.3-5.9
		c0.3-0.8,1.3-3.5,2.3-6.2s1.9-5.4,2.2-5.9s1.5-3.8,2.7-7.2c3.1-8.6,3-8.5,8.7-6.2 M528.8,574.6c2.7,4.8,4.7,10,5.9,15.5
		c0.9,7.6,0.9,15.3,0,22.9c-0.3,1.1-0.9,3.4-1.3,5c-1.3,5.1-2.9,10.1-4.8,15.1c-0.9,2.5-2,5.6-2.5,7c-0.5,1.3-1.9,5.2-3.1,8.6
		c-1.3,3.4-3.6,9.7-5.1,14c-1.5,4.3-3,8.3-3.2,8.9c-0.8,1.8-2.2,5.7-3.3,8.9c-0.5,1.6-1.4,4.1-1.9,5.4c-0.5,1.3-1.4,3.7-2,5.4
		c-0.6,1.6-1.3,3.4-1.5,4s-2.7,6.9-5.2,14c-5.4,14.9-10.3,24.8-13.6,27.7c-0.2,0-1.3,1.4-2.4,2.7c-5.9,6.4-13,11.6-20.8,15.5
		c-6.4,3-6.6,4.5,2.3-19.8l3.1-8.6c3.2-8.7,4.5-12.3,5.4-14.5c0.5-1.3,1-2.9,1.3-3.5c0.9-2,10-27,12.8-35c0.7-2.1,1.5-4.2,1.7-4.8
		c0.2-0.6,0.8-1.9,1.1-3c0.3-1,0.8-2.4,1.1-3c0.2-0.6,0.7-1.9,1.1-3c0.3-1,0.9-2.4,1.1-3c0.2-0.6,0.8-2.2,1.2-3.5
		c0.8-2.5,2.2-6.4,3.1-8.3c0.2-0.6,2-5.6,4-11c3.5-9.9,5.4-14.9,6.2-16.9c0.2-0.6,1.2-3.3,2.2-5.9s1.9-5.4,2.2-5.9
		c0.2-0.5,0.8-2.2,1.3-3.5c0.8-2.7,2.3-6.5,3.1-8.3c0.2-0.6,0.8-2.2,1.3-3.5c3.2-9.8,6.7-18.3,7.5-18
		C527.6,572.8,528.3,573.7,528.8,574.6"/>
	<path id="path2" class="st2" d="M533.5,29.9c0.5,0.3,1,0.4,1.6,0.4c0.9,0.1,1.5,0,1.3-0.2S533.5,29.5,533.5,29.9 M993.9,536.2
		c0,1,0,1.5,0.2,0.9c0.1-0.6,0.1-1.3,0-1.9C994.2,534.8,993.9,535.3,993.9,536.2"/>
	<path id="path3" class="st3" d="M491,30.2c-2.3,0.4-4.6,0.6-7,0.5c-5.6,0-24.9,1.5-26.2,1.9c-1.3,0.3-2.7,0.5-4,0.6
		c-1.9,0.2-4.2,0.4-5.2,0.6l-5.6,0.8c-3.5,0.5-6.7,1-13.4,2.2l-5.9,1c-3.9,0.6-7.7,1.4-11,2.2c-5,1.2-7.3,1.7-9.3,1.9
		c-0.8,0.1-1.6,0.3-2.3,0.8c-0.6,0.4-1.4,0.6-2.1,0.5c-0.8-0.1-1.5,0.1-2.2,0.5c-0.7,0.4-1.6,0.6-2.4,0.5c-1.2,0-2.1,0.2-2.1,0.5
		s-0.7,0.5-1.6,0.5c-0.7-0.1-1.4,0.1-1.9,0.5c-0.6,0.4-1.4,0.6-2.2,0.5c-1,0-1.9,0.2-1.9,0.5c0,0.3-0.8,0.5-1.9,0.5
		c-0.8-0.1-1.5,0.1-2.2,0.5c-0.4,0.4-1,0.6-1.6,0.5c-0.7,0-1.4,0.2-1.5,0.4c-0.7,0.4-1.5,0.6-2.3,0.6c-0.9,0-1.8,0.2-2.6,0.6
		c-0.4,0.3-0.9,0.5-1.5,0.5c-0.5,0-1,0.2-1,0.5s-0.5,0.5-1.2,0.5c-1.9,0.2-3.7,0.7-5.4,1.6c-0.2,0.2-0.5,0.3-0.8,0.3
		c-8,2.1-15.8,4.7-23.4,7.9l-2.7,1l-2.7,1.1l-2.7,1.1l-2.7,1.1l-2.4,0.9c-1.4,0.5-5.8,2.5-8.5,3.8c-0.8,0.5-1.7,0.8-2.7,1
		c-0.4,0-0.8,0.2-0.8,0.5c0,0.3-0.5,0.5-1.1,0.5c-0.6,0-1.1,0.2-1.1,0.5c0,0.3-0.3,0.5-0.8,0.5c-1,0.2-1.9,0.6-2.7,1.1
		c-0.8,0.5-1.6,0.8-2.4,1.1c-0.8,0-20.7,9.9-22.5,11.2c-0.7,0.6-1.6,0.9-2.4,1.1c-0.5,0-0.9,0.2-0.9,0.5c0,0.3-0.3,0.5-0.8,0.5
		s-0.8,0.2-0.8,0.5c-0.1,0.3-0.4,0.6-0.7,0.5c-0.7,0.1-1.3,0.5-1.8,0.9c-0.5,0.5-1.2,0.9-1.9,1.1c-0.4,0.1-0.8,0.3-1,0.7
		c0,0.3-0.6,0.5-1.2,0.5c-0.6,0-1,0.2-1,0.5c0,0.3-0.4,0.5-0.8,0.5c-1.2,0.3-2.2,0.9-3.2,1.6c-0.8,0.6-1.7,1.2-2.7,1.6
		c-0.6,0.2-1.2,0.6-1.8,1c-0.8,0.6-4,2.7-7.1,4.6s-5.9,3.7-6.2,4c-0.3,0.2-1.5,1-4.1,2.4c-0.7,0.4-1.4,0.9-2,1.5
		c-0.7,0.6-1.5,1.1-2.3,1.6c-0.8,0.4-1.5,1-1.5,1.2s-0.4,0.5-0.8,0.5c-0.4,0-0.8,0.2-0.8,0.5s-0.3,0.5-0.7,0.5
		c-0.6,0.2-1.1,0.5-1.5,1.1c-0.4,0.6-1,1.1-1.2,1.1c-0.6,0.2-1.2,0.6-1.6,1.1c-0.5,0.5-1.1,0.9-1.9,1.1c-0.4,0-0.7,0.2-0.7,0.5
		s-0.5,0.6-1,0.8c-0.8,0.3-1.5,0.7-2.1,1.3c-0.6,0.5-1.6,1.3-2.3,1.7c-1.1,0.8-5,3.7-9.1,6.9c-1,0.8-2.7,2.2-3.7,3.2
		c-0.6,0.7-1.4,1.3-2.3,1.7c-0.7,0.3-1.3,0.8-1.8,1.3c-0.5,0.6-1.2,1.1-1.9,1.3c-0.3,0-0.5,0.2-0.3,0.5c0.2,0.3,0,0.5-0.5,0.5
		c-0.5,0-0.7,0.2-0.5,0.5s0,0.5-0.5,0.5c-1.2,0.5-2.3,1.3-3.1,2.2c-1.3,1.2-3.1,2.8-4.2,3.6c-1.1,0.8-2.1,1.6-3,2.5
		c-0.6,0.6-1.9,1.7-2.9,2.4c-1,0.8-4.7,4.1-8.1,7.5s-8.7,8.4-11.5,11c-1.8,1.6-3.5,3.4-5.1,5.2c-1.9,2.3-3.9,4.5-6,6.5
		c-3.3,3.3-6.9,7.1-8.1,8.4c-1.2,1.3-2.7,3.2-3.7,4.3c-1,1.1-2.4,2.8-3.2,3.8c-0.8,1-2.6,3.1-4,4.6c-1,0.9-1.9,2-2.6,3.2
		c-0.2,0.5-0.5,1-1,1.4c-0.8,0.8-1.6,1.7-2.3,2.7s-1.4,1.9-2.3,2.7c-0.5,0.4-0.8,0.9-1,1.5c0,0.3-0.1,0.6-0.4,0.7
		c-1.6,1.5-3,3.2-4.2,5c-0.6,0.8-1.5,2-2.1,2.7c-0.5,0.7-1.9,2.5-3,4.1c-0.7,1.1-1.5,2.2-2.4,3.1c-0.3,0.2-0.4,0.5-0.4,0.9
		c-0.3,0.9-0.9,1.7-1.6,2.4c-0.6,0.6-1.2,1.3-1.6,2c-0.3,0.5-0.6,1-1.1,1.5c-0.5,0.5-0.9,1.1-1.1,1.9c0,0.4-0.2,0.7-0.4,0.7
		c-0.2,0-1,1-1.7,2.2c-0.7,1.2-1.5,2.2-1.7,2.2s-0.4,0.2-0.4,0.6c-0.6,1.3-1.3,2.6-2.2,3.7c-0.8,1.1-1.5,2.3-2.2,3.5
		c-0.7,1.5-1.6,2.8-2.7,4c-0.3,0.2-0.4,0.4-0.4,0.8c-0.3,0.8-0.7,1.6-1.2,2.2c-0.8,1-1.4,2.1-2,3.3c-0.4,0.9-1.4,2.7-2.2,3.8
		c-0.8,1.1-1.7,2.9-2.2,3.8c-0.4,0.8-0.9,1.6-1.5,2.4c-0.6,0.8-1.2,1.7-1.5,2.7c-0.5,1.1-1,2.1-1.3,2.1s-0.5,0.5-0.5,1.1
		s-0.2,1.1-0.4,1.1c-0.2,0-0.7,0.5-1,1.2c-1.1,2.3-2.3,4.4-3.6,6.5c-0.2,0.2-1.3,2.4-2.7,5.1s-3.9,8.1-5.8,11.8
		c-1.3,2.5-2.5,5.2-3.4,7.9c0,0.5-0.2,1-0.5,1c-0.3,0-0.5,0.5-0.5,1.1c0,0.6-0.2,1.1-0.5,1.1c-0.3,0-0.5,0.5-0.5,1.1
		s-0.2,1.1-0.5,1.1s-0.5,0.6-0.5,1.3c0,0.7-0.2,1.3-0.5,1.3c-0.3,0-0.5,0.5-0.5,1c0,0.5-0.2,1-0.5,1.4s-0.6,0.9-0.5,1.4
		c0,0.6-0.2,1-0.5,1c-0.3,0-0.5,0.5-0.5,1.1c0,0.6-0.2,1.1-0.5,1.1c-0.3,0-0.5,0.5-0.5,1.1c0,0.7-0.2,1.5-0.5,2.2
		c-0.2,0.5-0.8,1.7-1.1,2.7c-0.4,1-0.9,2-1.1,2.6c-0.3,0.6-0.5,1.3-0.5,2c0,0.6-0.2,1.1-0.5,1.1c-0.3,0-0.5,0.4-0.5,0.8
		c0,0.6-0.2,1.2-0.5,1.7c-0.8,1.7-1.5,3.5-2.2,5.2c-0.3,1-0.9,2.4-1.1,3c-0.5,1-3.8,11.6-4.9,15.3c-0.3,1-0.8,2.3-1,2.7
		c-0.3,0.6-0.5,1.3-0.5,2c0,0.5-0.2,1-0.5,1.4c-0.4,0.4-0.6,1-0.5,1.6c0,0.6-0.1,1.2-0.5,1.6c-0.4,0.5-0.6,1.2-0.5,1.9
		c0.1,0.7-0.1,1.3-0.5,1.9c-0.4,0.5-0.6,1.2-0.5,1.9c0.1,0.7-0.1,1.3-0.5,1.9c-0.4,0.5-0.6,1.2-0.5,1.9c0.1,0.7-0.1,1.3-0.5,1.9
		c-0.4,0.6-0.6,1.4-0.5,2.2c0,1-0.2,1.9-0.5,1.9s-0.5,0.9-0.5,1.9c0,1-0.2,1.9-0.5,1.9c-0.3,0-0.5,1-0.5,2.2c0,1.2-0.2,2.2-0.5,2.2
		c-0.3,0-0.6,0.9-0.8,2c-0.2,1.1-0.5,3.2-0.9,4.6c-0.3,1.4-0.8,3.7-1.1,5.1c-0.3,1.4-0.7,3.5-0.9,4.7c-0.1,0.9-0.3,1.9-0.8,2.7
		c-0.4,0.8-0.6,1.7-0.5,2.6c0.1,0.8-0.1,1.7-0.5,2.4c-0.5,1-0.7,2.1-0.8,3.2c-0.2,3.1-0.7,6.1-1.5,9.1c-0.3,1-0.5,2.1-0.5,3.2
		c0,1.2-0.2,2.4-0.5,3.5c-0.3,1.1-0.8,4.4-1.1,7.3s-1,8.1-1.4,11.3c-0.4,3.2-0.9,8.1-1,10.5c-0.3,5.2-0.6,9.8-1.2,17.5
		c-0.9,11.6-0.4,51.4,0.8,62.6c0.2,1.9,0.3,3.6,0.3,3.8c0,0.2,1.3,14.8,2,20.4c0.3,2.5,0.7,5.9,0.8,7.5c0.1,1.5,0.4,3,0.8,4.5
		c0.3,1.1,0.5,2.3,0.5,3.5c-0.1,0.9,0.1,1.7,0.5,2.5c0.5,1.2,0.7,2.5,0.8,3.7c0.7,5.7,1.7,11.4,3.1,16.9c0.3,1.4,0.7,3.5,0.9,4.6
		c0.1,0.8,0.3,1.6,0.8,2.3c0.4,0.7,0.6,1.6,0.5,2.4c-0.1,0.8,0.1,1.7,0.5,2.4c0.4,0.7,0.6,1.6,0.5,2.4c-0.1,0.8,0.1,1.7,0.5,2.4
		c0.4,0.6,0.6,1.4,0.5,2.2c0,1,0.2,1.9,0.5,1.9c0.3,0,0.6,0.8,0.8,1.7c0.3,2,0.8,4,1.5,5.9c0.8,1.9,1.4,4,1.6,6.1
		c0,0.6,0.2,1.2,0.5,1.2s0.5,0.8,0.5,1.9s0.2,1.9,0.5,1.9c0.3,0,0.5,0.7,0.5,1.6s0.2,1.6,0.5,1.6c0.3,0,0.5,0.8,0.5,1.8
		c0,0.8,0.1,1.6,0.5,2.3c0.7,1.5,1.2,3,1.7,4.5c0.6,2.2,2.2,6.8,3.4,10.2c1.2,3.4,2.3,6.7,2.4,7.4c0.1,0.7,0.5,1.2,0.8,1.2
		s0.5,0.6,0.5,1.3c0,0.6,0.1,1.2,0.5,1.6c0.4,0.4,0.6,0.9,0.5,1.4c0,0.6,0.2,1,0.5,1s0.5,0.6,0.5,1.2c0,0.6,0.1,1.2,0.5,1.7
		c0.5,0.9,0.9,1.9,1.2,2.9c0.4,1.4,1,2.8,1.7,4.2c0.5,0.8,0.8,1.7,1,2.6c0,0.4,0.2,0.8,0.5,0.8c0.3,0,0.5,0.4,0.5,0.8
		c0.1,0.7,0.2,1.3,0.5,1.9l1.1,2.2c0.3,0.6,0.5,1.2,0.5,1.9c0,0.4,0.2,0.8,0.4,0.8c0.2,0,1.7,2.7,1.7,3.6c0,0.3,0.2,0.6,0.5,0.7
		c0.3,0,0.5,0.5,0.5,1.1c0,0.6,0.2,1.1,0.5,1.1c0.3,0,0.5,0.4,0.5,1c0.8,2.6,1.9,5,3.1,7.4c1.7,3.5,3.8,7.9,4.7,9.7
		c0.5,1.2,1.2,2.4,2,3.4c0.2,0,0.4,0.5,0.4,0.9c0.1,0.8,0.4,1.5,0.9,2.2c1.3,1.8,2.3,3.7,3.2,5.7c0.2,0.5,0.5,0.9,0.8,0.9
		s0.5,0.5,0.5,1.1c0,0.6,0.2,1.1,0.5,1.1c0.3,0.1,0.6,0.4,0.5,0.7c0.2,0.7,0.5,1.4,1.1,1.9c0.5,0.5,0.9,1.2,1.1,2
		c0,0.5,0.2,0.8,0.5,0.8c0.3,0,0.5,0.5,0.5,1.1s0.2,1.1,0.4,1.1c0.2,0,0.8,0.8,1.2,1.7c0.3,0.7,0.7,1.4,1.1,2
		c0.3,0.3,4.9,7.9,5.4,8.8c0.3,0.6,0.7,1.1,1.2,1.6c0.5,0.5,0.8,1.1,1,1.8c0,0.3,0.2,0.6,0.5,0.7c0.3,0,0.5,0.2,0.5,0.5l0,0
		c0.6,1.3,1.3,2.6,2.2,3.7c0.8,1.1,1.5,2.3,2.2,3.5c0.2,0.5,0.6,1,1,1.3c0.7,0.7,1.3,1.5,1.7,2.3c0.4,0.8,1,1.5,1.2,1.5
		s0.5,0.4,0.5,0.8s0.2,0.8,0.5,0.8c0.3,0,0.5,0.4,0.5,0.8s0.2,0.8,0.5,0.8c0.3,0,0.5,0.2,0.5,0.5l0,0c0.4,0.8,0.9,1.6,1.6,2.2
		c0.7,0.6,1.2,1.4,1.6,2.2c1.2,2.2,2.6,4.2,4.2,6.1c0.4,0.6,0.8,1.2,1.2,1.9c0.4,0.8,1,1.5,1.6,2.1c0.8,0.8,1.5,1.7,2.2,2.7
		c1.2,1.8,2.6,3.6,4.1,5.2c0.5,0.5,1,1.1,1.2,1.8c0,0.3,0.5,0.8,1.1,1.1c0.6,0.3,1.1,0.8,1.1,1.2c0.2,0.6,0.5,1.1,1,1.5
		c0.8,0.8,1.6,1.7,2.3,2.7c0.9,1.2,1.9,2.4,2.9,3.5c0.9,0.9,2.5,2.7,3.5,4c3.7,4.5,8.9,10.4,14.9,16.5c2.1,2.1,4.2,4.2,6,6.5
		c1.4,1.7,2.9,3.2,4.6,4.7c2.6,2.4,7.1,6.7,10.1,9.7c3,3,7.7,7.2,10.3,9.4c4.8,4,6,5,8.6,7.4c0.5,0.5,1,0.9,1.7,1.2
		c0.8,0.5,1.5,1.1,2.1,1.7c1.6,1.8,3.4,3.4,5.5,4.7c0.8,0.4,1.5,0.9,2,1.5c0.9,0.8,3,2.6,4.8,3.9c1.7,1.3,3.6,2.7,4,3.1
		c0.8,0.7,1.7,1.4,2.7,2c0.9,0.5,1.6,1.1,2.3,1.8c0.6,0.6,1.4,1.1,2.2,1.4c1,0.5,1.9,1.1,1.9,1.3c0,0.3,0.3,0.5,0.7,0.5
		c0.8,0.2,1.5,0.6,2.1,1.2c3.3,2.7,3.7,3.1,4,3.1c0.5,0.3,1,0.6,1.3,1c0.8,0.7,1.6,1.3,2.5,1.7c0.8,0.4,1.6,0.9,2.3,1.6
		c0.6,0.6,1.3,1,2,1.5c1.7,0.8,3.2,1.8,4.7,3c0.5,0.5,1.1,0.8,1.8,0.9c0.3,0,0.6,0.2,0.7,0.5c0,0.3,0.2,0.5,0.5,0.5
		c1.8,0.8,3.5,1.8,5.1,3c1.6,1.1,3.3,2.1,5.1,3c0.3,0,0.6,0.2,0.6,0.5c0,0,0,0,0,0c0,0.2,0.4,0.6,0.9,0.8c1.6,0.7,3.1,1.5,4.4,2.5
		c0.3,0.3,4.1,2.3,6.3,3.4c0.6,0.3,1.2,0.8,1.2,1c0,0.2,0.5,0.4,1.1,0.4s1.1,0.2,1.1,0.5c0,0.3,0.3,0.5,0.8,0.5s0.8,0.2,0.8,0.4
		c0,0.2,0.8,0.8,1.9,1.2c1,0.4,1.9,0.9,1.9,1.2s0.3,0.4,0.7,0.5c1.3,0.4,2.5,0.9,3.6,1.5c1.6,0.8,5.7,2.9,9.1,4.6l8.3,4.1
		c0.8,0.5,1.7,0.8,2.7,1c0.4,0,0.8,0.2,0.8,0.5c0,0.3,0.6,0.5,1.3,0.5c0.8,0,1.3,0.2,1.3,0.4c0,0.2,2.7,1.7,3.6,1.7
		c0.3,0,0.6,0.2,0.7,0.5c0,0.3,0.5,0.5,1,0.5c0.5,0,1,0.2,1.4,0.5c0.5,0.4,1,0.6,1.6,0.5c0.7,0,1.3,0.2,1.3,0.5
		c0,0.3,0.5,0.5,1.1,0.5c0.6,0,1.1,0.2,1.1,0.5c0,0.3,0.5,0.5,1.1,0.5c0.6,0,1.1,0.2,1.1,0.5c0,0.3,0.6,0.5,1.3,0.5
		c0.6,0,1.2,0.1,1.6,0.5c0.4,0.4,0.9,0.6,1.4,0.5c0.6,0,1,0.2,1,0.5s0.4,0.5,1,0.5c1.1,0.2,2.2,0.6,3.2,1.1c0.9,0.5,1.8,0.8,2.7,1.1
		c1,0.2,1.9,0.6,2.8,1c1.3,0.6,3.3,1.3,4.4,1.7c0.9,0.3,1.8,0.6,2.7,1.1c4.6,1.7,9.3,3.2,14,4.4c0.7,0,1.3,0.3,1.3,0.5
		s0.6,0.4,1.3,0.4c0.6,0,1.2,0.1,1.6,0.5c0.5,0.4,1.2,0.6,1.9,0.5c0.8,0,1.6,0.2,1.7,0.5c0.4,0.4,0.9,0.7,1.5,0.7
		c0.7,0.1,1.4,0.3,2.2,0.5c3,1,6.1,1.9,9.2,2.6c0.5,0,0.9,0.2,1.2,0.5c0.7,0.4,1.6,0.6,2.4,0.5c1.2,0,2.1,0.2,2.1,0.5
		s0.7,0.5,1.6,0.5s1.6,0.2,1.6,0.5c0,0.3,0.8,0.6,1.7,0.8s3,0.6,4.4,0.9s3.5,0.7,4.6,0.9c1,0.1,2,0.4,3,0.8c2,0.7,4.1,1.1,6.2,1.4
		c1,0.2,2,0.4,3,0.8c2.6,0.8,5.3,1.2,8.1,1.4c1.3,0.1,2.5,0.4,3.8,0.8c1.1,0.4,2.3,0.6,3.5,0.8c1.3,0.2,3.7,0.5,5.4,0.8
		c1.6,0.3,4.9,0.8,7.3,1l6.2,0.8c5.1,0.8,15.2,2,19.1,2.2l9.1,0.6l12.9,0.9c7.9,0.6,41.5,0.4,46.5-0.2c1.3-0.2,5.1-0.4,8.3-0.6
		c8.3-0.4,13.7-0.8,15.9-1.2c1-0.2,2.8-0.4,4-0.5c5.8-0.4,19.5-2.3,29.6-4.1l4.6-0.8c3.2-0.4,6.3-1,9.4-1.9c1-0.4,1.9-0.6,3-0.8
		c2.3-0.2,4.5-0.7,6.7-1.4c1-0.4,2.1-0.6,3.2-0.8l4.2-0.6c0.8-0.1,1.6-0.3,2.3-0.8c0.6-0.4,1.4-0.6,2.1-0.5c0.8,0.1,1.5-0.1,2.2-0.5
		c0.5-0.4,1.2-0.6,1.9-0.5c0.7,0.1,1.3-0.1,1.9-0.5c0.5-0.4,1.2-0.6,1.9-0.5c0.9,0,1.6-0.2,1.6-0.5c0-0.3,0.8-0.6,1.9-0.8l3.8-0.6
		c0.8-0.1,1.5-0.4,2.2-0.8c0.6-0.4,1.2-0.6,1.9-0.5c0.9,0,1.8-0.2,2.7-0.5l2.2-1.1c0.7-0.3,1.4-0.5,2.1-0.5c0.5,0,1-0.2,1.4-0.5
		c0.5-0.4,1-0.6,1.6-0.5c0.8,0,1.5-0.2,2.3-0.5c0.5-0.3,3.7-1.4,7.1-2.4c5.4-1.6,10.6-3.5,15.7-5.7c0.5-0.3,1.1-0.4,1.7-0.5
		c0.4,0,0.8-0.2,0.8-0.5c0-0.3,0.6-0.5,1.3-0.5c0.6,0,1.2-0.1,1.6-0.5c0.3-0.3,0.7-0.5,1.1-0.5c1.1-0.2,2.1-0.6,3-1.1
		c1-0.5,2.1-0.9,3.2-1.1c0.5,0,1-0.2,1-0.4c0-0.2,2.7-1.7,3.6-1.7c0.3,0,0.6-0.2,0.7-0.5c0-0.3,0.6-0.5,1.3-0.5
		c0.8,0,1.3-0.2,1.3-0.4c0-0.2,2.7-1.7,3.9-1.7c0.5,0,1-0.2,1-0.5c0-0.3,0.5-0.5,1.1-0.5c0.6,0,1.1-0.2,1.1-0.5
		c0-0.3,0.4-0.5,0.8-0.5c9.9-4.1,19.5-8.8,28.7-14.1c0-0.2,0.6-0.4,1.1-0.4c0.8-0.1,1.5-0.5,2.1-1.1c0.5-0.5,1.2-0.9,2-1.1
		c0.5,0,0.8-0.2,0.8-0.5s0.3-0.5,0.8-0.5c0.5,0,0.8-0.2,0.8-0.5c0-0.3,0.4-0.5,1-0.5c0.8-0.1,1.5-0.5,2.1-1.1c0.5-0.5,1.2-0.9,2-1.1
		c0.5,0,0.8-0.2,0.8-0.4c0-0.2,0.8-0.8,1.9-1.2c1-0.4,1.9-0.9,1.9-1.2c0-0.2,0.3-0.4,0.8-0.4s0.8-0.2,0.8-0.5c0-0.3,0.2-0.5,0.5-0.5
		c0,0,0,0,0,0c2.8-1.3,5.5-2.8,8.1-4.7c0.5-0.4,1.1-0.8,1.7-1c0.6-0.2,1.1-0.6,1.1-0.8c0-0.3,0.3-0.5,0.7-0.5
		c0.7-0.1,1.3-0.5,1.7-0.9c0.8-0.7,1.6-1.2,2.5-1.7c0.8-0.4,1.5-1,1.5-1.2c0-0.2,0.4-0.5,0.9-0.5c0.7-0.1,1.3-0.4,1.7-0.9
		c0.7-0.7,1.5-1.3,2.3-1.7c0.8-0.4,1.5-1,1.5-1.2s0.4-0.5,0.8-0.5s0.8-0.2,0.8-0.5c0-0.3,0.2-0.5,0.5-0.5h0c1.3-0.6,2.5-1.4,3.5-2.5
		c0.8-0.7,1.7-1.3,2.7-1.8c3.7-2.3,7.3-4.8,10.7-7.5c0.9-0.8,1.8-1.4,2.8-2.1c1-0.6,1.9-1.3,2.6-2.3c0-0.3,0.3-0.5,0.6-0.5
		c0,0,0,0,0,0c0.9-0.5,1.8-1.1,2.4-1.9c0.7-0.8,1.5-1.4,2.4-1.9c1.1-0.7,2.1-1.5,3-2.4c0.9-1,1.9-1.8,3-2.4c0.9-0.4,1.7-1,2.3-1.7
		c1-1,2.8-2.7,4.1-3.6c1.3-0.9,2.7-2.2,3.1-2.7c0.5-0.5,1.7-1.5,2.7-2.3c5.5-4.4,37.1-35.7,37.1-36.7c0.4-0.6,0.9-1.2,1.5-1.7
		c0.8-0.8,3-3.3,4.9-5.5c1.9-2.2,4.5-5.4,5.8-6.8c1.1-1.2,2.1-2.4,3-3.8c0.4-0.7,0.9-1.3,1.4-1.8c0.8-0.8,1.5-1.7,2.2-2.7
		c0.6-1,1.4-1.9,2.3-2.7c0.5-0.3,0.9-0.9,1-1.5c0-0.4,0.2-0.8,0.4-0.9c3.4-3.7,6.6-7.7,9.4-12c1.7-2.4,3.4-4.7,3.8-5.2
		c0.5-0.7,1-1.5,1.4-2.3c0.4-0.8,1-1.5,1.2-1.5s0.5-0.4,0.5-0.8s0.2-0.8,0.5-0.8c0.3,0,0.5-0.4,0.5-0.8s0.2-0.8,0.5-0.8
		s0.5-0.3,0.5-0.8c0-0.4,0.2-0.7,0.5-0.9c2.6-3.3,4.9-6.7,7-10.3c0-0.1,1.4-2.4,3.1-5c1.7-2.6,3.6-5.6,4.2-6.6
		c0.4-0.7,0.8-1.5,1.3-2.2c0.6-0.9,1.1-1.9,1.6-3c0.5-1,1-2,1.6-3c0.6-0.9,1.2-1.8,1.6-2.8c0.4-1,1-1.8,1.7-2.6
		c0.2,0,0.4-0.5,0.4-1.1c0-0.6,0.2-1.1,0.4-1.1c0.2,0,0.7-0.5,1-1.2c1-2.2,2.2-4.3,3.6-6.2c0.2,0,0.4-0.6,0.4-1.2
		c0-0.5,0.2-1.1,0.4-1.2c0.2-0.1,6-11.3,8.6-17.1c0.7-1.6,2-4.4,2.9-6.1c0.7-1.2,1.2-2.5,1.6-3.9c0-0.4,0.2-0.7,0.5-0.7
		c0.3,0,0.5-0.4,0.5-0.8c0-0.6,0.2-1.2,0.5-1.7c0.5-0.9,0.8-1.7,2.3-5.4c0.4-1,0.9-1.7,1.1-1.7s0.4-0.5,0.4-1c0.1-1,0.5-1.9,0.9-2.8
		c1.1-2,1.9-4.2,2.3-6.5c0-0.5,0.2-0.9,0.5-0.9c0.3,0,0.5-0.5,0.5-1c0-0.5,0.2-1,0.5-1.4c0.4-0.5,0.6-1,0.5-1.6
		c0-0.7,0.2-1.3,0.4-1.3c0.2,0,0.5-0.2,4.1-11.3c1.4-4.3,2.7-8.2,3-8.7c0.3-0.7,0.5-1.5,0.5-2.3c0-0.6,0.2-1.2,0.5-1.6
		c0.4-0.5,0.6-1.2,0.5-1.9c0-0.9,0.2-1.6,0.5-1.6s0.5-0.7,0.5-1.6c-0.1-0.7,0.1-1.4,0.5-1.9c0.4-0.5,0.6-1.2,0.5-1.9
		c0-0.9,0.2-1.6,0.5-1.6c0.3,0,0.5-0.7,0.5-1.6c-0.1-0.7,0.1-1.4,0.5-1.9c0.4-0.6,0.6-1.4,0.5-2.2c0-1,0.2-1.9,0.5-1.9
		c0.3,0,0.6-0.8,0.8-1.9c0.2-1,0.5-2.7,0.6-3.8c0.2-1.1,0.5-1.9,0.8-1.9c0.2,0,0.6-0.8,0.7-1.7c0.2-1,0.6-3,0.9-4.4
		c0.3-1.5,0.7-3.5,0.9-4.6c0.1-1,0.4-2,0.8-3c0.3-0.9,0.6-1.8,0.8-2.7c0.3-2,1.2-6.2,2-9.4c0.3-1.3,0.8-3.9,1-5.6s0.8-4.5,1-6.2
		c1.4-7.3,2.5-14.8,3-20.4c0.2-1.9,0.5-4.7,0.8-6.2c0.2-1.5,0.6-4.2,0.8-6.2s0.4-5.2,0.6-7.3c1.1-13.1,1.5-20.9,1.7-37.9
		c0.2-11.6,0-21.7-0.3-25.8s-0.7-9.5-0.9-12.9c-0.2-3.4-0.4-7-0.5-8.1c-0.1-1-0.3-4.1-0.5-6.7s-0.5-5-0.6-5.1
		c-0.3-1.3-0.4-2.7-0.5-4c-0.2-2.1-0.5-4.4-0.6-5.1c-0.2-0.8-0.5-3.1-0.8-5.4c-0.6-4.9-1.4-9.8-3.2-19.6c-0.3-1.6-0.8-4.2-1-5.8
		c-0.3-1.6-0.8-3.9-1.1-5.2s-0.7-3.1-0.9-4c-0.2-0.9-0.4-1.8-0.7-2.7c-0.8-2.4-1.2-5-1.4-7.5c-0.1-0.9-0.3-1.9-0.8-2.7
		c-0.3-0.5-0.5-1.2-0.5-1.8c0-0.6-0.1-1.3-0.5-1.8c-0.4-0.5-0.6-1.2-0.5-1.9c0.1-0.7-0.1-1.3-0.5-1.9c-0.4-0.4-0.6-1-0.5-1.6
		c0-0.6-0.1-1.2-0.5-1.6c-0.4-0.6-0.6-1.4-0.5-2.2c0.1-0.8-0.1-1.5-0.5-2.2c-0.4-0.5-0.6-1.2-0.5-1.9c0-0.9-0.2-1.6-0.5-1.6
		s-0.5-0.5-0.5-1.2c-0.2-2.1-0.8-4.1-1.7-5.9c-0.3-0.5-0.4-1.1-0.5-1.7c0-0.6-0.2-1.2-0.5-1.7c-0.7-1.6-1.2-3.3-1.7-5
		c-2.1-7.4-4.6-14.6-7.6-21.6c-0.3-0.5-0.4-1-0.5-1.5c-0.3-1.1-0.7-2.1-1.1-3.1c-1.1-2.6-1.7-3.9-2.7-6.2c-0.3-0.7-1-2.3-1.6-3.5
		c-0.5-1-0.9-2-1.2-3.1c0-0.4-0.2-0.8-0.5-0.8c-0.3,0-0.5-0.5-0.5-1.1c0-0.6-0.2-1.1-0.5-1.1c-0.3,0-0.5-0.6-0.5-1.3
		s-0.2-1.3-0.5-1.3c-0.3,0-0.5-0.4-0.5-1c0-1.2-1.2-3.9-1.7-3.9c-0.5,0-0.4-0.5-0.4-1c0-0.5-0.2-1-0.5-1.4c-0.4-0.4-0.6-0.9-0.5-1.4
		c0-0.6-0.2-1-0.5-1c-0.3,0-0.5-0.3-0.5-0.8s-5.1-11.4-7.8-16.4l-2.7-5.1c-1.1-2.1-2.3-4.3-2.7-5c-0.4-0.7-0.8-1.2-1-1.2
		c-0.2,0-0.4-0.5-0.4-1.1c0-0.6-0.2-1.1-0.5-1.1c-0.3,0-0.5-0.4-0.5-0.8c0-0.4-0.2-0.8-0.5-0.8c-0.3,0-0.5-0.3-0.5-0.8
		s-0.2-0.8-0.5-0.8c-0.3-0.1-0.6-0.4-0.5-0.7c0-1-1.3-3.6-1.7-3.6s-0.4-0.4-0.4-0.8c0-0.4-0.2-0.8-0.4-0.8c-0.2,0-0.8-0.8-1.2-1.7
		c-0.7-1.6-3.9-6.9-9-14.8c-0.7-1-1.3-2.1-1.8-3.2c0-0.2-0.5-0.8-1.1-1.2c-0.6-0.4-1-1-1.1-1.7c0-0.5-0.2-1-0.4-1
		c-0.2,0-1-1-1.7-2.2c-0.7-1.2-1.5-2.2-1.7-2.2c-0.2,0-0.4-0.4-0.4-0.8c0-0.4-0.2-0.8-0.5-0.8c-0.3,0-0.5-0.4-0.5-0.8
		c0-0.4-0.2-0.8-0.5-0.8s-0.5-0.3-0.5-0.7c-0.2-0.6-0.5-1.1-1.1-1.5c-0.5-0.3-0.9-0.8-1.1-1.4c-0.2-0.6-0.5-1.2-1-1.7
		c-0.6-0.7-1.2-1.5-1.7-2.3c-1.8-2.8-3.8-5.5-5.9-8.1c-0.6-0.7-1.1-1.4-1.6-2.2c-1.2-1.8-2.5-3.5-4-5c-0.8-1-1.6-2-2.3-3.1
		c-0.7-0.9-1.4-1.8-2.2-2.7c-0.5-0.6-1-1.2-1.5-1.9c-0.3-0.6-0.9-1-1.2-0.9c-0.3,0.1-0.6-0.2-0.6-0.7c-0.3-0.9-0.9-1.8-1.6-2.4
		c-0.6-0.5-1.2-1.2-1.6-1.9c0-0.3-1-1.6-4.3-5.1c-0.8-0.8-2-2.3-2.9-3.3c-2.1-2.7-14.9-16.1-19.9-20.9l-10.5-10.2
		c-3.5-3.4-7.3-7-8.4-7.9s-2.8-2.4-3.7-3.1c-0.9-0.8-2.7-2.3-4-3.4c-1.3-1-2.6-2.1-3.8-3.3c-1-1-2.2-1.9-3.3-2.8
		c-0.9-0.7-1.8-1.4-2.7-2.2c-0.9-0.7-1.8-1.4-2.7-2c-1.1-0.7-2.1-1.5-3-2.4c-1.6-1.5-3.3-2.8-5.1-4c-0.8-0.5-1.5-1-2.2-1.6
		c-2.6-2.2-5.4-4.2-8.3-6c-0.8-0.3-1.4-0.8-1.4-1.1s-0.3-0.5-0.7-0.5c-0.7-0.2-1.4-0.5-1.9-1.1c-0.5-0.5-1-0.8-1.6-1.1
		c-0.2,0-0.8-0.5-1.2-1.1c-0.3-0.5-0.8-0.9-1.5-1.1c-0.4,0-0.7-0.2-0.7-0.5s-0.4-0.5-0.8-0.5s-0.8-0.2-0.8-0.5
		c0-0.2-0.7-0.8-1.5-1.2c-0.8-0.4-1.5-0.9-2.2-1.6c-0.4-0.5-1-0.8-1.6-0.9c-0.6-0.1-1.2-0.5-1.5-1.1c-0.3-0.5-0.9-0.9-1.5-1.1
		c-0.7-0.2-1.4-0.5-1.9-1.1c-0.5-0.5-1.1-0.9-1.9-1.1c-0.4,0-0.7-0.2-0.7-0.5s-0.5-0.6-1.1-0.8c-0.6-0.2-1.2-0.6-1.7-1
		c-3.6-2.4-7.3-4.7-11.1-6.7c-1-0.4-1.9-1-2.7-1.6c-1-0.9-2.2-1.5-3.5-1.7c-0.4,0-0.8-0.2-0.8-0.5c0-0.3-0.3-0.5-0.8-0.5
		s-0.8-0.2-0.8-0.5s-0.3-0.5-0.8-0.5s-0.8-0.2-0.8-0.5c0-0.3-0.4-0.5-0.8-0.5c-0.8-0.2-1.4-0.5-2-1.1c-0.6-0.6-1.3-0.9-2.1-1.1
		c-0.5,0-1-0.2-1-0.4c-0.8-0.7-1.7-1.3-2.7-1.7c-1.1-0.5-2.1-1-3.1-1.6c-0.2-0.2-4.1-2.2-8.9-4.5l-9.5-4.7c-0.5-0.3-1.1-0.5-1.7-0.5
		c-0.4,0-0.8-0.2-0.8-0.5s-0.6-0.5-1.3-0.5s-1.3-0.2-1.3-0.5c0-0.3-0.5-0.5-1.1-0.5c-0.6,0-1.1-0.2-1.1-0.5c0-0.3-0.5-0.5-1-0.5
		c-0.5,0-1-0.2-1.4-0.5s-0.9-0.6-1.4-0.5c-0.6,0-1-0.2-1-0.5c0-0.3-0.4-0.5-0.8-0.5c-0.6,0-1.2-0.2-1.7-0.5
		c-0.9-0.5-4.2-1.9-7.7-3.4c-1-0.5-3.6-1.5-5.6-2.3c-2.1-0.8-4.2-1.6-4.7-1.9c-0.6-0.3-1.3-0.5-2-0.5c-0.6,0-1.1-0.2-1.1-0.5
		c0-0.3-0.5-0.5-1.1-0.5c-0.7,0-1.4-0.2-2-0.5c-5.4-2.3-10.9-4.2-16.5-5.7c-1.3-0.3-2.5-0.8-3.7-1.4c-0.5-0.3-1.1-0.5-1.7-0.5
		c-0.8,0-1.5-0.2-2.2-0.5c-1.9-0.9-3.9-1.4-5.9-1.7c-0.6,0-1.2-0.2-1.2-0.5s-0.7-0.5-1.6-0.5c-0.7,0.1-1.4-0.1-1.9-0.5
		c-0.5-0.4-1.2-0.6-1.9-0.5c-0.7,0.1-1.3-0.1-1.9-0.5c-0.5-0.4-1.2-0.6-1.9-0.5s-1.3-0.1-1.9-0.5c-0.6-0.4-1.4-0.6-2.2-0.5
		c-0.8,0.1-1.5-0.1-2.2-0.5c-0.6-0.4-1.4-0.6-2.2-0.5c-1,0-1.9-0.2-1.9-0.5c0-0.3-0.9-0.6-2-0.8c-1.1-0.2-3.2-0.5-4.6-0.9l-5.1-1.1
		c-1.4-0.3-3.5-0.7-4.7-0.9c-0.9-0.1-1.9-0.3-2.7-0.8c-0.5-0.3-1.1-0.5-1.7-0.5c-1.2-0.1-2.4-0.3-3.5-0.5
		c-5.4-1.3-20.2-3.6-32.3-5.1c-11.1-1.3-12.9-1.5-28.2-2.5c-10.6-0.7-49.8-1.1-51.6-0.5 M569.6,111.4c0.7,0.3,4.4,1.6,8.2,3
		c2.5,0.8,5,1.8,7.4,2.9c-0.3,2.9-1,5.7-2.3,8.4c-0.3,0.6-3.5,9.5-7.3,19.9c-6.3,17.4-7.9,21.5-11.7,32.5c-0.8,2.2-1.6,4.5-1.9,5.1
		c-0.7,1.6-2.4,6.3-4.3,11.8c-0.9,2.7-2.2,6-2.7,7.5c-2.3,6.1-3,5.4,7.6,7.3c4.6,0.8,7.4,1.4,13,2.7c1.8,0.5,3.7,0.8,5.5,1.1
		c1.1,0,1.3-0.5,7.3-17.1l2.1-5.8l2.2-5.9c2.7-7.1,3.4-9.2,3.8-10.2c0.2-0.6,0.7-1.8,1-2.7c1.1-3.2,5-14,5.4-15.1
		c0.9-2.2,2.3-6,3.3-8.9c2.1-6.7,4.7-13.3,7.6-19.7c0.4-0.4,1.9,0,5.8,1.3c2.9,1,5.8,2,6.6,2.3c4.9,1.6,6,2.3,5.8,3.7
		c-1,3.6-2.2,7.1-3.6,10.5c-0.9,2.2-2.3,6-3.2,8.9c-0.5,1.6-1.6,4.5-2.3,6.5c-0.8,1.9-3.4,9.3-6,16.4c-2.6,7.1-4.8,13.4-5.1,14
		c-0.2,0.5-4.2,11.2-5.4,15.1c-0.3,0.9-0.8,2.1-1,2.7c-1.3,3.2-2.3,6.5-3,9.9c1.1,0.7,2.2,1.2,3.4,1.6l4.2,1.7
		c6.9,2.9,18.7,6.5,19.3,5.8c0.6-0.7,1.9-4,5.4-14.2c0.7-2.1,1.5-4.2,1.8-4.8c0.8-2,2.2-5.9,3-8.3c0.4-1.3,1-2.9,1.2-3.5
		c0.2-0.6,1-2.7,3.8-10.2c0.6-1.6,1.5-4.2,2.1-5.8l4.6-12.8c2-5.4,4-10.9,4.4-12.1c0.5-1.2,1.5-4.1,2.4-6.4c2.2-6,3.1-6.6,6.9-4.6
		c0.5,0.2,2.2,0.9,3.9,1.5c10.3,3.7,10.1,3.6,8.8,7.5c-1.3,3.9-3.5,10.3-4.1,11.6c-0.3,0.6-0.9,2.4-1.5,4c-0.6,1.6-1.5,4-2,5.4
		c-0.5,1.3-1.1,3-1.4,3.8c-0.2,0.8-1.2,3.4-2.1,5.9l-5.1,14c-1.9,5.2-4.2,11.5-5.1,14c-0.9,2.5-2,5.7-2.5,7s-1,2.9-1.3,3.5
		c-1.5,3.5-2.7,7.1-3.6,10.8c-0.3,2.1-1.5,1.5,14.1,7.2c1.6,0.6,4.3,1.6,5.9,2.2c1.6,0.6,3.3,1,4.9,1.2h2l2.7-7
		c2.7-7.6,3.4-9.2,5.5-15.3c0.8-2.2,1.6-4.5,1.9-5.1c0.2-0.6,0.8-2.2,1.3-3.5c0.8-2.3,2.1-6,3-8.3c0.2-0.6,0.9-2.5,1.6-4.2l2.2-5.9
		c0.6-1.6,1.7-4.7,2.5-6.9c0.8-2.2,1.9-5.4,2.5-6.9l2-5.6c2-5.4,4.4-12,5.2-13.7l0.8-1.7l2.3,0.7c5.4,1.5,10.7,3.6,15.7,6.2
		c0.3,0.5,0,2.1-2.4,8.1c-0.9,2.5-1.9,5.2-2.2,5.9c-0.2,0.8-1.2,3.4-2.2,5.9c-0.9,2.5-2.7,7.1-3.8,10.2c-5.4,14.7-7.1,19.8-7.9,21.8
		c-0.5,1.2-1.6,4.2-2.4,6.7s-1.8,5.1-2,5.6c-0.4,1-1,2.7-3.8,10.2c-0.6,1.6-1.6,4.3-2.2,5.9c-1.9,4.8-2,4.7,11.3,9.5
		c3.1,1.1,7.7,2.7,10.2,3.7c2.5,1,5.7,2.1,7,2.5s2.9,1,3.5,1.3c0.6,0.2,1.5,0.6,2,0.8c1.6,0.5,1.2,2-8.8,28.8
		c-0.9,2.5-1.9,5.2-2.1,5.9c-0.2,0.8-1.2,3.4-2.2,5.9c-0.9,2.5-2,5.6-2.5,7s-1,2.9-1.3,3.5c-0.6,1.4-2.3,6-3.8,10.4
		c-1.9,5.4,1.8,6.2-33.3-6.7c-4.2-1.5-5.8-1.6-6.2-0.3c-0.2,0.5-0.5,1.4-0.8,2c-0.7,1.5-3.2,8.4-6.5,17.5s-4.2,11.7-6.5,17.7
		c-0.9,2.5-2.3,6.3-3,8.3c-1.9,5.2-3.4,9.5-4,10.8c-0.2,0.6-0.8,2.2-1.3,3.5c-0.5,1.3-1.6,4.5-2.5,7s-3.3,8.9-5.2,14.2
		c-3.6,9.9-4.3,11.8-7.2,19.6c-0.9,2.5-2,5.7-2.5,7c-0.4,1.3-1,2.9-1.3,3.5c-0.2,0.6-1,2.7-3.8,10.2l-2.2,5.9l-2.1,5.8
		c-1.3,3.5-7,19.1-9.7,26.9c-1.1,3.1-2.7,7.7-3.7,10.2c-1,2.5-2,5.6-2.5,7s-1,2.9-1.3,3.5c-0.4,1-1,2.7-3.8,10.2
		c-0.6,1.6-1.5,4.2-2.1,5.8c-5.6,15.4-5.4,14.2-2.4,18.8c8.5,13.2,14.3,28,16.9,43.4c2.4,12.7,1.8,33.7-1.5,51.4
		c-0.3,1.5-0.8,4-1,5.6c-0.5,2.7-2.1,9-4.6,17.9c-1,3.8-5,15.7-7.3,21.9c-0.9,2.5-1.9,5.2-2.1,5.9c-0.2,0.8-1.4,4-2.7,7.3
		c-1.3,3.3-2.7,7.4-3.3,9.1c-1.6,4.5-3.3,9-3.8,10.2c-0.2,0.6-1,2.7-1.6,4.6c-0.4,1.4-1,2.7-1.6,4c-0.3,0.4-0.5,0.9-0.5,1.5
		c0,0.7-0.2,1.3-0.5,1.9c-0.6,1.4-1.2,2.8-1.7,4.2c-5.8,15.9-15.9,38.2-19.1,41.7c-0.4,0.4-0.6,0.8-0.8,1.3
		c-3.7,6.3-7.8,12.3-12.3,18c-13.4,17.2-31.2,30.6-51.4,38.7l-7.2,2.7c-0.7,0.3-1.4,0.4-2.2,0.5c-1.9,0-3,1.8-5.9,9.8
		c-1.6,4.5-3.5,9.7-4.2,11.5s-1.9,5.2-2.7,7.5c-0.5,1.7-1.1,3.3-1.9,4.8c-0.3,0.5-0.5,1.1-0.5,1.6c0,0.6-0.1,1.1-0.4,1.6
		c-0.5,0.8-0.8,1.7-1.1,2.7c-0.6,2-1.4,3.9-2.2,5.8c-0.3,0.7-0.9,2.3-1.3,3.6c-0.4,1.3-1.2,3.4-1.6,4.6c-0.5,1.2-2.7,7.5-5.1,14
		c-5.8,16.1-5.9,16.3-7,16.3c-5.8-1.6-11.5-3.8-16.9-6.5c-0.6-0.9-0.2-2.4,2.7-10.4c0.9-2.4,2-5.5,2.5-7c1.1-3.1,1.7-4.6,2.4-6.3
		c0.3-0.7,0.9-2.3,1.3-3.6c0.5-1.3,1.5-4.5,2.5-7c0.9-2.5,3.2-8.8,5.1-14c1.9-5.2,4.2-11.5,5.1-14c1.9-5.2,2.8-8.6,2.4-9.1
		s-7-0.3-15.1-0.3h-14.8l-0.8,1.9c-1,2.1-1.8,4.3-2.5,6.5c-0.8,2.3-2.1,6-3,8.3c-0.4,1-1.1,3-3.8,10.2c-0.6,1.6-1.5,4.2-2.1,5.8
		l-3.5,9.8c-7.5,20.9-6.7,19.5-10.1,18.4c-5.3-1.7-10.4-3.7-15.4-6.2c0-0.5,2.4-7.5,4.9-14c3-8.1,2.7-7.6,11.8-32.5
		c4.5-12.6,4.9-11.3-3.9-13.4c-6.7-1.6-8.1-2-13.4-3.5c-7.7-2.3-6.9-2.9-10.8,8.3c-5.2,14.4-10,27.6-13.9,38.4
		c-1.9,5.1-2.7,6.5-3.4,6.5c-2.4-0.5-4.8-1.2-7-2.1c-0.6-0.2-2.5-1-4.3-1.6c-6.6-2.4-6.3-2.3-5.9-4c0.3-1.8,2.9-9.1,4-11.8
		c0.2-0.6,0.8-1.9,1.1-3c0.3-1,0.8-2.4,1.1-3c0.2-0.6,0.7-1.9,1.1-3c0.3-1,0.9-2.4,1.1-3s1.7-4.6,3.2-8.9c1.5-4.3,3.6-10.1,4.7-12.9
		c3.3-8.8,3.2-9-0.6-10.2c-0.9-0.3-4.5-1.5-7.9-2.7c-17.1-6.2-15.8-6.2-17.7-1c-0.7,1.9-1.5,3.9-1.7,4.5c-0.3,0.6-2.7,7.1-5.4,14.5
		c-2.7,7.4-5.6,15.5-6.5,18c-0.9,2.5-2,5.6-2.4,6.8c-2.5,7.2-2.3,7.1-7.9,5.1c-12.8-4.5-12.8-4.5-12.8-5.8c0.7-3.5,1.8-6.9,3.2-10.1
		c0.5-1,0.8-1.9,1.1-3c0.3-1,0.6-2,1.1-3c0.4-1,0.8-1.9,1.1-3c0.3-1,0.6-2,1.1-3c0.3-0.5,0.5-1.1,0.6-1.6c0.2-0.6,1-3.1,2-5.6
		c0.9-2.5,2.1-5.6,2.5-7c0.4-1.3,1-2.9,1.3-3.5c1.9-4.6,3.5-9.4,4.8-14.2c0-1.2-3.9-2.7-25-10.2c-2.7-0.9-5.8-2.1-7-2.7l-7.8-2.9
		c-3.1-1.1-7.7-2.7-10.2-3.7l-5.9-2.2c-2.7-0.9-10.2-3.7-10.8-4c-0.9-0.6-0.6-1.7,2.1-9.3c3.4-9.4,8.6-23.7,9.2-25.1
		c0.8-1.8,2.3-5.8,2.7-7.3c0.2-0.8,1.2-3.4,2.1-5.9c0.9-2.5,2.1-5.7,2.5-7c0.4-1.3,1-2.9,1.3-3.5c0.3-0.6,1-2.4,1.5-4
		c1-3.2,2.3-3.9,4.6-2.7c0.6,0.3,2.7,1.1,4.6,1.7c1.9,0.6,4,1.3,4.6,1.6c1.2,0.5,4,1.6,13.2,4.9c3.4,1.2,8.4,3,11,4l12.6,4.6
		c4.3,1.5,8.8,3.1,9.9,3.6c5.9,2.3,8.5,2.9,9.2,2.2s2.4-4.8,9.6-25.1c0.8-2.2,1.6-4.5,1.9-5.1c0.3-0.6,1-2.7,3.8-10.2l2.1-5.8
		c0.6-1.6,2.7-7.3,4.6-12.8c1.9-5.5,4.2-11.5,4.9-13.4c0.8-1.9,1.8-4.8,2.3-6.5c0.9-2.7,2.2-6.3,3.2-8.9c0.4-1,0.8-2.2,3.7-10.1
		c1.7-4.6,5.1-14.2,7.8-21.6l3.5-9.8c0.6-1.6,1.5-4.2,2.1-5.8c2.7-7.6,3.4-9.2,3.8-10.2c0.2-0.6,0.8-2.2,1.2-3.5
		c0.4-1.3,1.2-3.4,1.6-4.6c2.1-5.5,6.5-17.4,9-24.5c3.2-8.9,7.8-21.5,9.1-25c1-2.4,3.8-10.4,4.6-13.1l0.9-2.9l-6.9-6.8
		c-22.5-22-33.9-44.6-38.4-75.6c-0.8-11.3-0.8-22.7,0-34c1.8-14.8,5.1-29.4,9.9-43.6c1.3-4.2,2.8-8.6,3.3-9.9c0.5-1.3,1.4-3.7,2-5.4
		c0.6-1.7,1.3-3.4,1.5-4s0.7-1.9,1.1-3c0.3-1,0.9-2.4,1.1-3c0.2-0.6,0.8-2.2,1.3-3.5c0.8-2.9,1.9-5.7,3.2-8.4
		c0.2-0.4,0.4-0.9,0.3-1.4c0-0.7,0.2-1.3,0.5-1.9c0.3-0.5,1.3-3,2.3-5.4c4.3-11.1,9.4-21.9,15.4-32.3c1-1.7,2.1-3.7,2.6-4.5
		c11.8-22.8,42.2-48.4,67-56.5c7.1-2.5,14.4-4.3,21.9-5.4c6.6-1,13.2-1.7,19.9-1.9c4.5,0,3.3,2.3,12.8-24.2
		c6.5-18,7.7-21.3,8.4-22.9c0.2-0.6,0.8-2.2,1.2-3.5c0.4-1.3,1.2-3.5,1.7-4.8c0.5-1.3,1.4-3.7,2-5.4c0.6-1.6,1.3-3.4,1.5-4
		c0.3-0.6,1.1-2.9,1.9-5.1c0.8-2.2,2.4-6.6,3.5-9.7c1.1-3.1,2.8-7.8,3.8-10.5c2.3-6.5,2.5-6.7,4.9-5.7 M534,280.1
		c-2.8,0.3-5.5,1-8.1,2.1c0,0.3-2.7,8.1-3.4,9.7s-1.6,4-4.2,11.6c-0.9,2.5-1.9,5.4-2.3,6.2c-0.4,0.8-1.1,2.7-1.5,4
		c-0.4,1.3-1.6,4.5-2.5,7c-0.9,2.5-1.9,5.2-2.1,5.9s-1.9,5.4-3.8,10.5c-4.6,12.7-5.1,14-6.7,18.3c-0.8,2.1-1.8,4.9-2.2,6.2
		c-0.4,1.3-1,2.9-1.3,3.5c-0.3,0.6-0.8,2.2-1.3,3.5c-0.8,2.4-2.2,6.4-3,8.3c-0.3,0.6-1,2.7-1.8,4.8s-3.8,10.5-6.8,18.8l-5.9,16.5
		c-0.3,0.9-0.8,2.1-1,2.7s-1,2.5-1.6,4.3s-1.4,3.7-1.6,4.3c-0.2,0.6-0.8,2.2-1.2,3.5s-1.2,3.5-1.7,4.8c-0.5,1.3-1.4,3.8-2,5.4
		c-0.6,1.6-1.3,3.4-1.5,4c-1.5,3.6-1.5,4.2,0,6.5c4.6,5.7,10.1,10.4,16.4,14.1c5.4,3.3,6.4,3.1,7.9-1.5c0.5-1.3,1.2-3.4,1.6-4.6
		c0.5-1.2,2.1-5.7,3.6-9.9s3.3-9.2,4-11s2-5.4,3-8.1c2-5.8,3.7-10.4,4.3-11.8c0.2-0.6,0.8-2.2,1.2-3.5s1.4-4,2.2-5.9
		c0.8-1.9,3-8.2,5.1-14c3.4-9.4,5.4-15.1,8.7-24c0.6-1.6,1.5-4.1,2.1-5.8l2.2-5.9c2.7-7.1,3.4-9.2,3.8-10.2c0.2-0.6,0.7-1.8,1-2.7
		c0.3-0.9,1.5-4,2.5-7c2-5.4,3.8-10.4,8.8-24.5c1.5-4.3,3-8.3,3.3-8.9c0.3-0.6,0.8-1.9,1.1-3c0.8-2.3,1.3-3.7,2-5.4
		c0.3-0.7,0.9-2.4,1.4-3.8c0.5-1.3,1.7-4.8,2.7-7.7c2.2-6,2.3-7,1-7.6c-7.4-0.8-14.9-0.8-22.3,0 M577.2,286.8c-2,4.1-3.7,8.4-5,12.8
		c-1.4,4-3.4,9.3-4.3,11.8c-0.9,2.5-1.9,5.2-2.2,5.9c-0.2,0.8-1.2,3.4-2.2,5.9s-1.9,5.2-2.1,5.9c-0.5,1.5-2,5.6-2.7,7.3
		c-0.2,0.6-0.8,2.2-1.2,3.5c-0.4,1.3-3.1,8.7-5.9,16.4c-2.8,7.7-5.6,15.3-6.2,16.9c-0.6,1.6-1.8,5-2.7,7.5c-0.9,2.5-2.1,5.6-2.5,7
		c-0.4,1.3-1,2.9-1.3,3.5c-0.8,1.8-2.2,5.8-3.1,8.3c-0.4,1.3-1,2.9-1.2,3.5c-0.2,0.6-0.9,2.4-1.5,4c-0.6,1.6-1.5,4.1-2,5.4
		s-2.1,5.8-3.6,9.9c-1.5,4.1-3.3,9.1-4,11c-0.8,1.9-1.8,4.8-2.3,6.5c-0.9,2.9-2.3,6.7-3.2,8.9c-0.3,0.6-1.1,2.9-1.9,5.1
		c-0.8,2.2-2.4,6.7-3.5,9.9c-5.2,14.5-5.4,13.3,0.3,15.3c1.8,0.6,3.7,1.4,4.3,1.7c0.6,0.3,2.3,0.9,3.8,1.3c1.5,0.5,3.5,1.3,4.6,1.7
		l3,1.2l2.7,1c2.8,1.1,4.1,0.8,5.1-1.4c0.9-2.2,3.6-9.5,6.1-16.5c0.8-2.4,2.3-6.3,3.2-8.9c0.9-2.5,2-5.7,2.5-7
		c0.4-1.3,1-2.9,1.3-3.5c0.2-0.6,1-2.5,1.6-4.2l2.3-6.2c0.6-1.7,1.3-3.6,1.6-4.2c0.2-0.6,1-2.7,1.8-4.8c1.6-4.7,12.3-34.2,13.4-37.1
		c0.5-1.2,1.6-4.3,2.5-7c0.9-2.7,1.9-5.4,2.1-5.9c0.2-0.5,1.1-2.7,3.8-10.2c0.6-1.6,1.6-4.2,2.1-5.8c0.6-1.6,3.1-8.6,5.7-15.7
		c6.7-18.6,8.9-24.6,9.4-25.8c0.2-0.6,1-2.7,1.8-4.8c0.7-2.2,2.1-5.8,3-8.3c5.4-14.3,5.4-13.4-2.2-15.8c-2.3-0.8-6.1-2.2-8.3-3
		l-4.3-1.6l-4.5-1.7c-1.7-0.7-3.1-0.6-3.7,0.2 M494.1,301.5c-6.7,7.7-11.7,16.6-14.8,26.3c-1,3-2.7,7.4-3.6,9.9
		c-0.9,2.5-2,5.6-2.5,7c-0.4,1.3-1,2.9-1.3,3.5s-0.8,1.9-1.1,3c-0.3,1-0.8,2.4-1.1,3c-0.2,0.6-1,2.5-1.6,4.3s-1.4,3.7-1.6,4.3
		s-0.8,2.2-1.2,3.5c-0.4,1.3-2.7,7.4-4.8,13.4c-2.5,6.3-4.6,12.8-6.3,19.4c-2.4,10.8-2,25.4,0.6,19.8c1.1-2.3,5.4-13.3,5.6-14.7
		c0.2-0.8,0.5-1.6,0.8-2.4c0.8-1.8,1.3-3.2,2-5.4c0.3-1,0.9-2.4,1.1-3c0.2-0.6,0.8-2.2,1.3-3.5c0.5-1.3,1.6-4.5,2.5-7
		c0.9-2.5,2.3-6.3,3-8.3c0.7-2.1,2.2-5.9,3.1-8.6c1-2.7,3.3-9,5.1-14c1.8-5,3.5-9.6,3.8-10.2c0.2-0.6,1-2.7,1.6-4.6
		c0.6-1.9,1.4-4,1.6-4.6c0.3-0.6,0.9-2.2,1.4-3.5c2.2-6.1,5.2-14.3,7.5-20.7C499.5,297.1,499.3,295.8,494.1,301.5 M624.3,303.2
		c-0.6,0.4-2.3,4.6-8.1,20.6c-1.9,5.2-4.1,11.5-5.1,14c-0.9,2.5-2.4,6.5-3.2,8.9c-0.8,2.4-2.3,6.4-3.3,8.9c-0.9,2.5-1.9,5.2-2.2,5.9
		c-0.2,0.7-1.6,4.6-3.1,8.6c-1.5,4-4.4,12.1-6.5,18c-2.1,5.9-4.1,11.2-4.3,11.8c-0.2,0.6-1,2.7-3.8,10.2l-2.2,5.9l-2.2,5.9
		c-2.5,6.9-3.4,9.2-3.8,10.2c-0.4,1-6.3,17.5-7.7,21.2c-0.6,1.6-1.2,3.4-1.5,4c-0.2,0.6-0.8,1.9-1.1,3s-0.8,2.4-1.1,3
		c-0.9,2.3-2.3,6-3,8.3c-0.4,1.3-1,2.9-1.2,3.5c-2.9,7-5.3,14.2-7.4,21.5c2.1,1.8,4.3,3.4,6.6,4.8c3.5,2.3,8.7,6.1,11.5,8.4
		c6.5,5.4,5.7,5.5,8.6-2.4c2-5.6,8.1-22,10.8-29.4c1.9-5.2,3.7-10.1,6.5-17.7c0.6-1.6,1.9-5.4,3-8.3c1-3,2.2-6.1,2.7-7
		c0.4-1,0.8-1.9,1.1-3c0.2-0.8,0.5-1.6,0.9-2.4c0.3-0.6,2.1-5.5,4-11s4-11.2,4.6-12.8l2.2-5.9c0.6-1.7,1.3-3.6,1.6-4.2
		c0.2-0.6,0.7-1.9,1.1-3c0.3-1,0.8-2.4,1.1-3c0.9-2.3,2.3-6,3-8.3c0.4-1.3,1-2.9,1.2-3.5c0.5-1,1.3-3.3,8.4-22.9
		c2-5.4,3.8-10.4,4.1-11c0.3-0.6,0.8-2.2,1.3-3.5c0.5-1.3,1.6-4.5,2.5-7s1.8-5.1,2-5.8c0.1-0.6,0.3-1.1,0.7-1.5
		c0.3-0.4,0.5-0.8,0.5-1.3c0.2-1.2,0.5-2.3,1-3.3c0.6-1.3,1.4-3.4,1.8-4.7c0.4-1.3,1.7-4.7,2.7-7.4c3-7.8,4-7-18.8-14.9
		C624.4,302.6,625,302.7,624.3,303.2 M437.5,526.7c-1.5,3.2-2.7,6.5-3.9,9.8c-1.8,5-3.9,10.8-4.7,12.6c-0.8,1.9-1.8,4.8-2.3,6.5
		c-1,3-2.4,6.9-3.3,8.9c-0.2,0.6-0.8,2.2-1.2,3.5s-1.2,3.4-1.6,4.6c-1.6,4.1-6.4,17.2-6.8,18.6c-0.2,0.8-1.2,3.4-2.2,5.9
		c-0.9,2.5-1.9,5.2-2.2,5.9s-1.2,3.3-2,5.6c-3.5,9.4-5.1,13.4-5.8,15.9c-0.5,1.3-1,2.9-1.3,3.5c-0.8,1.9-2.3,5.8-3.3,8.9
		c-0.5,1.6-2.7,7.3-4.5,12.6c-1.9,5.3-3.8,10.3-4,11c-0.5,1.6-4.2,11.7-5.9,16.4l-3.2,8.9c-2.7,7.8-5.9,16.1-6.4,17.5
		c-0.2,0.6-1.7,4.6-3.3,8.9s-3.5,9.7-4.4,12.1c-0.9,2.4-1.8,4.9-2,5.6c-0.2,0.7-1.1,3-1.8,5.1c-2.1,5.7-2.1,5.7,6.1,8.5
		c1.3,0.4,4.5,1.6,7,2.5c12.7,4.7,12.2,4.8,14.2-0.6c0.8-2.2,1.7-4.4,1.9-5c0.2-0.6,1.2-3.3,2.2-5.9c0.9-2.7,1.9-5.4,2.2-5.9
		c0.8-1.9,2.2-5.9,3-8.3c0.4-1.3,1-2.9,1.2-3.5c0.2-0.6,0.9-2.4,1.5-4c1.5-4.2,5.4-14.7,6.8-18.8c0.7-1.9,2.5-6.8,4-10.8
		c1.5-4,3-8.4,3.5-9.7c0.5-1.3,1.2-3.5,1.7-4.8c0.5-1.3,1.4-3.8,2-5.4c0.6-1.6,1.3-3.4,1.5-4c0.2-0.6,0.8-2.2,1.2-3.5
		c0.4-1.3,1.4-4,2.2-5.9s3.4-9.3,6-16.4c2.5-7.1,4.9-13.4,5.1-14s0.8-2.2,1.3-3.5c0.5-1.3,1.6-4.5,2.5-7s1.9-5.2,2.1-5.9
		s0.9-2.4,1.4-3.8c0.5-1.3,1.4-3.7,2-5.4c0.6-1.6,1.3-3.4,1.5-4c0.3-0.6,1.2-3.3,2.1-5.9c0.9-2.7,2.1-5.8,2.5-7
		c1.3-3.4,4.5-12.2,5.4-14.8c0.5-1.3,1-2.9,1.3-3.5c2.6-6.4,4.9-13,6.7-19.7c-3.1-1.8-6.4-3.4-9.7-4.8c-0.1,0-3.6-1.8-7.7-4
		C437.7,525.5,438.3,525.8,437.5,526.7 M482.7,547.1c-1.1,2.2-2,4.5-2.7,6.9c-1.2,3.4-2.4,6.6-2.7,7.2c-0.3,0.6-1.2,3.3-2.2,5.9
		c-0.9,2.7-1.9,5.4-2.3,6.2c-1.1,2.7-1.5,3.5-2.3,5.9c-0.4,1.3-1.6,4.5-2.5,7c-0.9,2.5-1.9,5.2-2.1,5.9c-0.6,2-13,35.9-14,38.4
		c-0.2,0.6-0.7,1.9-1.1,3c-0.3,1-0.8,2.4-1.1,3s-0.7,1.9-1.1,3c-0.3,1-0.8,2.4-1.1,3c-0.9,2.2-2.3,6-3.1,8.3
		c-0.4,1.3-2.1,5.9-3.6,10.2c-1.6,4.3-4.4,11.9-6.2,16.9l-4.4,12l-2.2,5.9c-0.6,1.7-1.3,3.6-1.6,4.2c-0.3,0.6-1.2,3.3-2.1,5.9
		c-0.9,2.7-2.1,5.8-2.5,7c-1.2,3.3-11.9,32.7-14,38.4c-2.2,6.3-2.1,6.5,4.8,8.1l4.8,1.1c6.9,1.6,16.6,2.1,17.5,0.9
		c1-1.2,2.7-6.6,11.1-29.4c3.1-8.7,6.6-18.1,7.6-21c1-2.8,2.5-6.8,3.2-8.9c0.8-2.1,1.8-5,2.3-6.6c0.6-1.6,1.6-4.2,2.2-5.9
		c0.6-1.7,1.3-3.6,1.6-4.2c0.3-0.6,1.2-3.3,2.2-5.9s2.7-7.9,4.1-11.6l4.3-11.8c5.9-16.1,7.3-20,8.1-22.3c0.2-0.6,1.2-3.3,2.2-5.9
		c2-5.8,3.7-10.4,4.4-11.8c0.2-0.6,1.1-2.9,1.9-5.1c0.8-2.2,3-8.3,4.8-13.4c1.9-5.2,4.1-11.2,4.8-13.4c0.8-2.2,1.6-4.5,1.9-5.1
		c0.2-0.6,0.8-1.9,1.1-3s0.8-2.4,1.1-3c0.2-0.6,0.7-1.9,1.1-3c0.3-1,0.8-2.4,1.1-3c1.4-3.3,2.4-6.7,3-10.2c-0.4-1-5.4-3.5-11.9-5.9
		c-3-1.1-6.9-2.6-8.7-3.3C484.9,546.3,483.5,546.1,482.7,547.1 M524.8,575.4c-1.7,4.2-4.3,11.2-5.4,14.6c-0.5,1.3-1,2.9-1.3,3.5
		c-0.8,1.8-2.2,5.8-3.1,8.3c-0.4,1.3-1,2.9-1.3,3.5c-0.3,0.6-1.2,3.3-2.2,5.9s-1.9,5.4-2.2,5.9c-0.8,2-2.7,7-6.2,16.9
		c-2,5.4-3.8,10.4-4,11c-0.8,1.9-2.3,5.9-3.1,8.3c-0.4,1.3-1,2.9-1.2,3.5c-0.2,0.6-0.8,1.9-1.1,3c-0.3,1-0.8,2.4-1.1,3
		c-0.2,0.6-0.7,1.9-1.1,3c-0.3,1-0.8,2.4-1.1,3c-0.3,0.6-1,2.7-1.7,4.8c-2.7,7.9-11.9,32.9-12.8,35c-0.2,0.6-0.8,2.2-1.3,3.5
		c-0.7,2.2-2,5.8-5.4,14.5c-9.5,25.7-10.8,30.1-9.6,30.1c3.8,0,19.3-10.6,25-17.2c1.2-1.3,2.3-2.7,2.4-2.7
		c3.3-2.9,8.2-12.8,13.6-27.7c2.7-7.1,4.9-13.4,5.2-14c0.2-0.5,0.9-2.4,1.5-4c0.6-1.6,1.5-4,2-5.4c0.5-1.3,1.3-3.8,1.9-5.4
		c1-3.1,2.5-7.1,3.3-8.9c0.3-0.6,1.7-4.6,3.2-8.9c1.5-4.3,3.8-10.6,5.1-14c1.3-3.4,2.7-7.3,3.1-8.6c0.5-1.3,1.6-4.5,2.5-7
		c1.9-4.9,3.5-9.9,4.8-15.1c0.3-1.6,0.9-3.9,1.3-5c0.9-7.6,0.9-15.3,0-22.9c-1.9-8.1-5.9-17.2-7.9-18
		C526.5,571.9,525.7,573.3,524.8,575.4"/>
</g>
</svg>
